/* XPM */
static char * exit_xpm[] = {
"32 32 458 2",
"  	c #091A38",
". 	c #0D1E3B",
"+ 	c #091937",
"@ 	c #0B1C39",
"# 	c #0F1E3C",
"$ 	c #0A1B38",
"% 	c #091A3B",
"& 	c #0F1F40",
"* 	c #102B44",
"= 	c #0E2942",
"- 	c #0E2841",
"; 	c #0D2841",
"> 	c #092641",
", 	c #07233C",
"' 	c #082540",
") 	c #092741",
"! 	c #09303E",
"~ 	c #0A2742",
"{ 	c #0A263F",
"] 	c #0E2047",
"^ 	c #071838",
"/ 	c #0A1B3E",
"( 	c #081E3E",
"_ 	c #061634",
": 	c #041634",
"< 	c #051635",
"[ 	c #081837",
"} 	c #071836",
"| 	c #0C1B39",
"1 	c #0C1C3D",
"2 	c #0D1D3E",
"3 	c #0C1B3D",
"4 	c #112D46",
"5 	c #102D47",
"6 	c #0F2C47",
"7 	c #0A2842",
"8 	c #0B2943",
"9 	c #0C2A44",
"0 	c #0B3340",
"a 	c #0F3543",
"b 	c #0F2B47",
"c 	c #0A2641",
"d 	c #09253E",
"e 	c #0C2D47",
"f 	c #0B1E45",
"g 	c #0E2041",
"h 	c #0F1E41",
"i 	c #0C1D3B",
"j 	c #0B1C3A",
"k 	c #0A1C3B",
"l 	c #051634",
"m 	c #081836",
"n 	c #0C1C3A",
"o 	c #0C1E3C",
"p 	c #0A1A3C",
"q 	c #0B1A3D",
"r 	c #13224B",
"s 	c #0E2B46",
"t 	c #0B2740",
"u 	c #0D2A45",
"v 	c #3F4D55",
"w 	c #5B6266",
"x 	c #747779",
"y 	c #E4E517",
"z 	c #898A8A",
"A 	c #EFF207",
"B 	c #828384",
"C 	c #74767A",
"D 	c #5B6265",
"E 	c #0E3543",
"F 	c #102C48",
"G 	c #0F2B44",
"H 	c #0F224B",
"I 	c #0A2740",
"J 	c #102048",
"K 	c #0F1F41",
"L 	c #061937",
"M 	c #09193B",
"N 	c #081939",
"O 	c #0E1E3F",
"P 	c #0E1E43",
"Q 	c #09233A",
"R 	c #0A1941",
"S 	c #102C45",
"T 	c #414A57",
"U 	c #6E7174",
"V 	c #868687",
"W 	c #8D8C8C",
"X 	c #A5A5A5",
"Y 	c #F5F800",
"Z 	c #6E6F73",
"` 	c #424B59",
" .	c #0E2A43",
"..	c #0D2943",
"+.	c #0A1A41",
"@.	c #0E1F43",
"#.	c #051C3B",
"$.	c #0B2346",
"%.	c #0B2C43",
"&.	c #0D263E",
"*.	c #0A253E",
"=.	c #163652",
"-.	c #565C66",
";.	c #818283",
">.	c #959595",
",.	c #818183",
"'.	c #555C60",
").	c #102D48",
"!.	c #08243D",
"~.	c #0F1E43",
"{.	c #051E33",
"].	c #061637",
"^.	c #0A1B42",
"/.	c #0B3240",
"(.	c #0D3743",
"_.	c #5C6168",
":.	c #0437FF",
"<.	c #042FFF",
"[.	c #0431FF",
"}.	c #0434FF",
"|.	c #0538FF",
"1.	c #5C6066",
"2.	c #0D3444",
"3.	c #133B57",
"4.	c #0D2F4C",
"5.	c #072038",
"6.	c #0A2C45",
"7.	c #0C3341",
"8.	c #072E3C",
"9.	c #07253F",
"0.	c #595D64",
"a.	c #8C8B8B",
"b.	c #042DFF",
"c.	c #0530FF",
"d.	c #0432FF",
"e.	c #0433FF",
"f.	c #0438FF",
"g.	c #043EFF",
"h.	c #064AFF",
"i.	c #0B2844",
"j.	c #103948",
"k.	c #0C2B48",
"l.	c #09233C",
"m.	c #14344E",
"n.	c #0D3442",
"o.	c #0A253F",
"p.	c #4C5159",
"q.	c #0436FF",
"r.	c #0342FF",
"s.	c #0346FF",
"t.	c #0349FF",
"u.	c #0345FF",
"v.	c #0440FF",
"w.	c #043AFF",
"x.	c #0441FF",
"y.	c #4D535E",
"z.	c #0C2944",
"A.	c #0D2B45",
"B.	c #0D3441",
"C.	c #082F3C",
"D.	c #0C314B",
"E.	c #0E2B47",
"F.	c #0C2841",
"G.	c #282F4D",
"H.	c #78787C",
"I.	c #0353FF",
"J.	c #0363FF",
"K.	c #0274FF",
"L.	c #0278FF",
"M.	c #0270FF",
"N.	c #0268FF",
"O.	c #0454FF",
"P.	c #0439FF",
"Q.	c #0442FF",
"R.	c #78797B",
"S.	c #263345",
"T.	c #082239",
"U.	c #09223A",
"V.	c #0B243C",
"W.	c #0C2941",
"X.	c #0C1E3E",
"Y.	c #575961",
"Z.	c #0A31FE",
"`.	c #0435FF",
" +	c #0347FF",
".+	c #035DFF",
"++	c #0279FF",
"@+	c #0193FF",
"#+	c #019BFF",
"$+	c #009BFF",
"%+	c #0198FF",
"&+	c #0195FF",
"*+	c #0185FF",
"=+	c #0264FF",
"-+	c #043CFF",
";+	c #044AFF",
">+	c #575A61",
",+	c #0B1A3C",
"'+	c #081936",
")+	c #092237",
"!+	c #0E1F46",
"~+	c #162B41",
"{+	c #7A787B",
"]+	c #0E3AFE",
"^+	c #0183FF",
"/+	c #0199FF",
"(+	c #01A0FF",
"_+	c #0196FF",
":+	c #0190FF",
"<+	c #009DFF",
"[+	c #0187FF",
"}+	c #035AFF",
"|+	c #043FFF",
"1+	c #0443FF",
"2+	c #0260FF",
"3+	c #16213B",
"4+	c #0D2240",
"5+	c #091B39",
"6+	c #0A1A3B",
"7+	c #0A2743",
"8+	c #474D59",
"9+	c #0834FF",
"0+	c #043DFF",
"a+	c #0354FF",
"b+	c #0277FF",
"c+	c #009EFF",
"d+	c #019FFF",
"e+	c #018EFF",
"f+	c #026FFF",
"g+	c #025DFF",
"h+	c #0265FF",
"i+	c #026CFF",
"j+	c #018DFF",
"k+	c #019AFF",
"l+	c #017EFF",
"m+	c #0351FF",
"n+	c #0358FF",
"o+	c #474E58",
"p+	c #0B2439",
"q+	c #082139",
"r+	c #0A243B",
"s+	c #092F3E",
"t+	c #0A3340",
"u+	c #5D6265",
"v+	c #036DFF",
"w+	c #0099FF",
"x+	c #00A1FF",
"y+	c #026AFF",
"z+	c #035EFF",
"A+	c #0360FF",
"B+	c #018AFF",
"C+	c #0197FF",
"D+	c #0266FF",
"E+	c #034FFF",
"F+	c #0176FF",
"G+	c #5D6167",
"H+	c #757679",
"I+	c #0C46FF",
"J+	c #009FFF",
"K+	c #0267FF",
"L+	c #0359FF",
"M+	c #0280FF",
"N+	c #018CFF",
"O+	c #0189FF",
"P+	c #0186FF",
"Q+	c #0361FF",
"R+	c #0275FF",
"S+	c #027CFF",
"T+	c #0343FF",
"U+	c #036FFF",
"V+	c #767879",
"W+	c #092F3C",
"X+	c #072E3B",
"Y+	c #0B1D44",
"Z+	c #7F7F81",
"`+	c #0549FF",
" @	c #0093FF",
".@	c #00A3FF",
"+@	c #0286FF",
"@@	c #027EFF",
"#@	c #028AFF",
"$@	c #0184FF",
"%@	c #027DFF",
"&@	c #035CFF",
"*@	c #0194FF",
"=@	c #0283FF",
"-@	c #0344FF",
";@	c #026DFF",
">@	c #09243D",
",@	c #10364A",
"'@	c #0B1F46",
")@	c #EEF009",
"!@	c #034EFF",
"~@	c #0098FF",
"{@	c #0273FF",
"]@	c #018BFF",
"^@	c #0374FF",
"/@	c #0173FF",
"(@	c #025EFF",
"_@	c #034AFF",
":@	c #898888",
"<@	c #0D1E3E",
"[@	c #0E2444",
"}@	c #0D2847",
"|@	c #0276FF",
"1@	c #025BFF",
"2@	c #026EFF",
"3@	c #027AFF",
"4@	c #0175FF",
"5@	c #0181FF",
"6@	c #0191FF",
"7@	c #017AFF",
"8@	c #F2F501",
"9@	c #09193A",
"0@	c #09203C",
"a@	c #0F2541",
"b@	c #027BFF",
"c@	c #019EFF",
"d@	c #025FFF",
"e@	c #018FFF",
"f@	c #0269FF",
"g@	c #017CFF",
"h@	c #0263FF",
"i@	c #0281FF",
"j@	c #0B1A38",
"k@	c #071634",
"l@	c #091A37",
"m@	c #0A1E3B",
"n@	c #7F7F80",
"o@	c #035FFF",
"p@	c #0282FF",
"q@	c #00A2FF",
"r@	c #00A0FF",
"s@	c #0258FF",
"t@	c #026BFF",
"u@	c #0365FF",
"v@	c #0271FF",
"w@	c #0444FF",
"x@	c #081736",
"y@	c #0A1A38",
"z@	c #767679",
"A@	c #0262FF",
"B@	c #044FFF",
"C@	c #0362FF",
"D@	c #0188FF",
"E@	c #0256FF",
"F@	c #01A7FF",
"G@	c #767578",
"H@	c #071735",
"I@	c #5D5E65",
"J@	c #0179FF",
"K@	c #009AFF",
"L@	c #00A6FF",
"M@	c #0192FF",
"N@	c #0446FF",
"O@	c #5D5F67",
"P@	c #081839",
"Q@	c #071638",
"R@	c #0F2047",
"S@	c #474A58",
"T@	c #076BFF",
"U@	c #00A4FF",
"V@	c #0272FF",
"W@	c #0451FF",
"X@	c #0261FF",
"Y@	c #0182FF",
"Z@	c #484B5C",
"`@	c #0C1C41",
" #	c #07173B",
".#	c #0F1F47",
"+#	c #182F47",
"@#	c #7A787C",
"##	c #0367FF",
"$#	c #034BFF",
"%#	c #0357FF",
"&#	c #025CFF",
"*#	c #0356FF",
"=#	c #0348FF",
"-#	c #0352FF",
";#	c #11A8FD",
">#	c #7A797B",
",#	c #152840",
"'#	c #07223B",
")#	c #0B2843",
"!#	c #11334C",
"~#	c #575A65",
"{#	c #087BFE",
"]#	c #00A7FF",
"^#	c #034DFF",
"/#	c #04A1FF",
"(#	c #575B62",
"_#	c #0A313F",
":#	c #263448",
"<#	c #78797C",
"[#	c #0094FF",
"}#	c #00A9FF",
"|#	c #00A5FF",
"1#	c #027FFF",
"2#	c #01A4FF",
"3#	c #263347",
"4#	c #113846",
"5#	c #0E3542",
"6#	c #4D525C",
"7#	c #E8ED10",
"8#	c #019CFF",
"9#	c #00AAFF",
"0#	c #4D565C",
"a#	c #102E48",
"b#	c #122D46",
"c#	c #596063",
"d#	c #01A9FF",
"e#	c #00ABFF",
"f#	c #00ACFF",
"g#	c #0F2940",
"h#	c #09193D",
"i#	c #0B1B40",
"j#	c #5D6168",
"k#	c #04A7FF",
"l#	c #02AAFF",
"m#	c #081840",
"n#	c #0F2547",
"o#	c #07163B",
"p#	c #102045",
"q#	c #06163B",
"r#	c #09183D",
"s#	c #071F34",
"t#	c #0E1E3C",
"u#	c #0C263D",
"v#	c #08233C",
"w#	c #555A62",
"x#	c #0C1E46",
"y#	c #0C1D46",
"z#	c #051432",
"A#	c #041432",
"B#	c #051533",
"C#	c #0D1C3E",
"D#	c #091941",
"E#	c #414556",
"F#	c #9D9D9E",
"G#	c #414955",
"H#	c #0D1C45",
"I#	c #0B1B3E",
"J#	c #071739",
"K#	c #071635",
"L#	c #041533",
"M#	c #0A1A42",
"N#	c #3E4256",
"O#	c #5B5D69",
"P#	c #747679",
"Q#	c #E4E518",
"R#	c #5B5E63",
"S#	c #3E424E",
"T#	c #071937",
"U#	c #08183D",
"V#	c #0C1C44",
"W#	c #091A41",
"X#	c #051633",
"Y#	c #061734",
"  . + @ + + # $ % & * = - ; > , ' ) ! > ) ~ { ] ^ / ( + _ : < : ",
"[ } @ . | $ 1 2 3 4 * 5 6 7 8 ) 9 0 a 8 b ) c d e f g h i j k l ",
"m m n n o p q r s t u v w x y z A B C D v E ! F G H I J K i j L ",
"M N O P Q R S 4 9 T U V W X X Y X X X W V Z ` 5  ...{ +.@.O n #.",
"$.Q %.&.*.> 6 =.-.;.X X X >.>.>.>.>.>.X X X ,.'.).5 ~ d !.~.{.].",
"7 ^.*.{ > /.(._.z X X >.:.:.<.[.}.|.:.:.>.X X z 1.2.3.4.d !., 5.",
"6.) 7 7.8.9.0.a.X Y >.:.b.c.d.e.}.}.f.g.h.>.Y Y a.0.i.j.7.k.l.9.",
"E m.n.u o.p.V X Y >.:.c.q.r.s.t.u.v.w.q.x.:.>.X Y V y.z.A.B.7.C.",
"D.E.F.d G.H.X X >.:.}.v.I.J.K.L.M.N.O.v.P.Q.:.>.X X R.S.T.U.V.t ",
"{ W.X.N Y.W X >.Z.`. +.+++@+#+$+%+&+*+=+x.-+;+:.>.X W >+,++ '+)+",
"{ !+..~+{+X X >.]+x..+^+/+(+_+:+&+/+<+[+}+|+1+2+>.X X {+3+4+5+6+",
"> 7 7+8+W X >.9+0+a+b+c+d+e+f+g+h+i+j+k+l+m+|+n+>.X X W o+p+q+r+",
"s+7 t+u+W X >.:. +v+w+x+[+}+}+y+=+z+A+B+C+D+g.E+F+>.X W G+; l.8 ",
"~ 7 > H+Y X >.I+}+[+J+&+K+L+M+N+O+P+Q+R+k+S+T+s.U+>.X X V+W+> X+",
"d Y+*.Z+Y X >.`+N. @.@+@a+@@#@R+F+$@%@&@*@=@ +-@;@>.X Y Z+>@>@> ",
"Y+,@'@)@X Y >.!@f+~@(+{@n+]@K.U+^@/@*+(@e+O+_@t.K.>.X Y :@*.R Q ",
"<@[@}@W Y X >.a+|@#+J+;@1@j+2@3@L.4@5@A+6@=@ +!@7@>.Y X 8@9@O 9@",
"0@@ a@:@Y X >.}+b@c@<+h+d@e@f@S+S+M+g@h@*@%@s.a+i@>.X Y :@  j@k@",
"l@m@n n@X X >.o@p@q@r@;@s@:+{@t@++7@u@v@C+f@w@L+[+>.X Y Z+  + x@",
". + y@z@X X >.A@i@x+.@K.B@3@N+f@D+C@f+*@D@E@t.N.F@>.X X G@+ j@H@",
"& M 9@I@W X >.u@J@K@L@D@a+=+j+e@O+*+M@M@K+N@I.^+F@>.X W O@,+P@Q@",
"R@R@!+S@W X >.T@3@*@U@w+V@W@X@Y@O+e@M+o@t._@L.%+F@>.X W Z@`@ # #",
"{  ..#+#@#X X >.L.e+q@L@M@##$#m+%#&#*#=#-#i+:+;#>.X X >#,#l.'#; ",
")#c { !#~#W X >.{#D@d+]#U@]@y+%#-#^#!@}+b+:+/#F@>.X W (#d '#t 8 ",
"_#_#s 6 :#<#X Y >.F@[#q@}#|#C+[+1#L.S+]@%+2#J+>.Y X <#3#B.B.4#B.",
")#* s 5#A.6#7#Y X >.F@8#U@9#}#|#q@d+r@.@9#F@>.Y X V 0#W+' a#a#)#",
"{ b#F.z.B.5#c#a.X X >.F@J+F@d#e#e#e#f#F@F@>.X X a.0.9.d >@>@g#t ",
"h#+.i#r+; ; 7 j#z X X >.F@F@k#l#e#F@F@F@>.X X z 1.>@m#n#].o#p#q#",
"r#s#t#6+p+u#>@v#w#,.X X >.>.>.>.>.>.>.>.X X ,.w#x#y#6+,++ z#y@A#",
"m B#_ n n C#3 D#D#E#Z F#X X X X Y X X X F#Z G#H#I#J#q K#K#H@L#L#",
"'+H@B#H@$ '+P@9@t D#M#N#O#P#B A z Q#P#R#S#T#N U#H@'+'+H@H@B#B#L#",
"+ '+'+$ y@'+H@+ N 6+V#t M#M#W#7 > _#T.H@'+H@N H@B#H@+ '+X#Y#H@X#"};
