/* XPM */
static char * ground_xpm[] = {
"32 32 441 2",
"  	c #091A38",
". 	c #0D1E3B",
"+ 	c #091937",
"@ 	c #0B1C39",
"# 	c #0F1E3C",
"$ 	c #0A1B38",
"% 	c #091A3B",
"& 	c #0F1F40",
"* 	c #102B44",
"= 	c #0E2942",
"- 	c #0E2841",
"; 	c #0D2841",
"> 	c #092641",
", 	c #07233C",
"' 	c #082540",
") 	c #092741",
"! 	c #09303E",
"~ 	c #0A2742",
"{ 	c #0A263F",
"] 	c #0E2047",
"^ 	c #071838",
"/ 	c #0A1B3E",
"( 	c #081E3E",
"_ 	c #061634",
": 	c #041634",
"< 	c #051635",
"[ 	c #081837",
"} 	c #071836",
"| 	c #0C1B39",
"1 	c #0C1C3D",
"2 	c #0D1D3E",
"3 	c #0C1B3D",
"4 	c #112D46",
"5 	c #102D47",
"6 	c #0F2C47",
"7 	c #0A2842",
"8 	c #0B2943",
"9 	c #0C2A44",
"0 	c #0B3340",
"a 	c #0F3543",
"b 	c #0F2B47",
"c 	c #0A2641",
"d 	c #09253E",
"e 	c #0C2D47",
"f 	c #0B1E45",
"g 	c #0E2041",
"h 	c #0F1E41",
"i 	c #0C1D3B",
"j 	c #0B1C3A",
"k 	c #0A1C3B",
"l 	c #051634",
"m 	c #081836",
"n 	c #0C1C3A",
"o 	c #0C1E3C",
"p 	c #0A1A3C",
"q 	c #0B1A3D",
"r 	c #13224B",
"s 	c #0E2B46",
"t 	c #0B2740",
"u 	c #0D2A45",
"v 	c #0E3543",
"w 	c #0F3644",
"x 	c #0A313F",
"y 	c #0D3442",
"z 	c #0B3240",
"A 	c #0D3441",
"B 	c #0F3544",
"C 	c #102C48",
"D 	c #0F2B44",
"E 	c #0F224B",
"F 	c #0A2740",
"G 	c #102048",
"H 	c #0F1F41",
"I 	c #061937",
"J 	c #09193B",
"K 	c #081939",
"L 	c #0E1E3F",
"M 	c #0E1E43",
"N 	c #09233A",
"O 	c #0A1941",
"P 	c #102C45",
"Q 	c #113846",
"R 	c #09233C",
"S 	c #09243D",
"T 	c #0E2A43",
"U 	c #0D2943",
"V 	c #0A1A41",
"W 	c #0E1F43",
"X 	c #051C3B",
"Y 	c #0B2346",
"Z 	c #0B2C43",
"` 	c #0D263E",
" .	c #0A253E",
"..	c #163652",
"+.	c #112F4B",
"@.	c #0C2944",
"#.	c #0A2741",
"$.	c #082239",
"%.	c #051432",
"&.	c #132D43",
"*.	c #0E2143",
"=.	c #102D48",
"-.	c #08243D",
";.	c #0F1E43",
">.	c #051E33",
",.	c #061637",
"'.	c #0A1B42",
").	c #0D3743",
"!.	c #0D2B45",
"~.	c #0C3341",
"{.	c #07253F",
"].	c #0F2E47",
"^.	c #0C2942",
"/.	c #0D1C3B",
"(.	c #0F1F47",
"_.	c #0F2A43",
":.	c #0B2843",
"<.	c #0D3444",
"[.	c #133B57",
"}.	c #0D2F4C",
"|.	c #072038",
"1.	c #0A2C45",
"2.	c #072E3C",
"3.	c #092F3C",
"4.	c #0A273F",
"5.	c #091840",
"6.	c #092137",
"7.	c #0E273F",
"8.	c #0A1A3E",
"9.	c #0E2C47",
"0.	c #102E48",
"a.	c #0B2844",
"b.	c #103948",
"c.	c #0C2B48",
"d.	c #14344E",
"e.	c #0A253F",
"f.	c #0B253E",
"g.	c #0E2B43",
"h.	c #09303D",
"i.	c #0D2A44",
"j.	c #0E334C",
"k.	c #082F3C",
"l.	c #0C314B",
"m.	c #0E2B47",
"n.	c #0C2841",
"o.	c #0F1E47",
"p.	c #0B1B40",
"q.	c #0C1E3E",
"r.	c #0A1C40",
"s.	c #082136",
"t.	c #0A243B",
"u.	c #0A2642",
"v.	c #0A303E",
"w.	c #0B2944",
"x.	c #092540",
"y.	c #0A323F",
"z.	c #09223A",
"A.	c #0B243C",
"B.	c #0C2941",
"C.	c #0A193B",
"D.	c #0B1A3C",
"E.	c #0A1D3B",
"F.	c #091B3A",
"G.	c #071735",
"H.	c #0B1B43",
"I.	c #153651",
"J.	c #10314A",
"K.	c #07223B",
"L.	c #081936",
"M.	c #092237",
"N.	c #0E1F46",
"O.	c #0A1A3F",
"P.	c #081839",
"Q.	c #0D2042",
"R.	c #0D2D48",
"S.	c #0A263E",
"T.	c #113049",
"U.	c #09263F",
"V.	c #0B1C40",
"W.	c #0B1A38",
"X.	c #0D2240",
"Y.	c #091B39",
"Z.	c #0A1A3B",
"`.	c #0A2743",
" +	c #09193A",
".+	c #09283C",
"++	c #0A2241",
"@+	c #0C2940",
"#+	c #0A1A42",
"$+	c #092640",
"%+	c #0B2B47",
"&+	c #081F36",
"*+	c #0A1C3D",
"=+	c #112649",
"-+	c #0A253C",
";+	c #0B2A45",
">+	c #12304A",
",+	c #0E283F",
"'+	c #0B2439",
")+	c #082139",
"!+	c #092F3E",
"~+	c #0A3340",
"{+	c #07243E",
"]+	c #0B2840",
"^+	c #072E49",
"/+	c #0A2D46",
"(+	c #0A2B44",
"_+	c #081737",
":+	c #082040",
"<+	c #0A2046",
"[+	c #0A2C43",
"}+	c #072E3B",
"|+	c #0C3E4A",
"1+	c #0E304A",
"2+	c #0A3442",
"3+	c #0A2844",
"4+	c #092940",
"5+	c #061534",
"6+	c #0A1A38",
"7+	c #0E2343",
"8+	c #0A3744",
"9+	c #0E3443",
"0+	c #0B1D44",
"a+	c #0B3642",
"b+	c #0A303F",
"c+	c #0A2C49",
"d+	c #072D49",
"e+	c #091E3D",
"f+	c #081F3D",
"g+	c #091A37",
"h+	c #091B3E",
"i+	c #0E2148",
"j+	c #0D3643",
"k+	c #0F314C",
"l+	c #0F2E49",
"m+	c #10364A",
"n+	c #0B1F46",
"o+	c #072138",
"p+	c #09183D",
"q+	c #0C2B45",
"r+	c #0E2B44",
"s+	c #0F2A42",
"t+	c #0A2549",
"u+	c #0B1D40",
"v+	c #0B1B3D",
"w+	c #0A1B3F",
"x+	c #0E314A",
"y+	c #0C2B46",
"z+	c #0D1E3E",
"A+	c #0E2444",
"B+	c #0D2847",
"C+	c #091941",
"D+	c #0C3141",
"E+	c #0D2F48",
"F+	c #0E244A",
"G+	c #102B45",
"H+	c #102A43",
"I+	c #0C2E4A",
"J+	c #0C2741",
"K+	c #09203C",
"L+	c #0F2541",
"M+	c #0E1F3C",
"N+	c #0D1D3B",
"O+	c #0D1C41",
"P+	c #0A1C43",
"Q+	c #0A1942",
"R+	c #0C1D44",
"S+	c #0C304C",
"T+	c #0F2D47",
"U+	c #0C3644",
"V+	c #0B2E49",
"W+	c #0B2B45",
"X+	c #0A2F4D",
"Y+	c #0E3853",
"Z+	c #113650",
"`+	c #093B4C",
" @	c #0D2B47",
".@	c #0F2047",
"+@	c #0B243D",
"@@	c #0D2043",
"#@	c #091C3B",
"$@	c #071634",
"%@	c #0A1E3B",
"&@	c #0E1F3D",
"*@	c #0A2943",
"=@	c #0B3946",
"-@	c #093240",
";@	c #0A2A46",
">@	c #093241",
",@	c #083B4C",
"'@	c #0D3945",
")@	c #0C3441",
"!@	c #09313F",
"~@	c #0A3F50",
"{@	c #0C2A46",
"]@	c #0D3946",
"^@	c #0D304C",
"/@	c #0B1C43",
"(@	c #0C1E3F",
"_@	c #102341",
":@	c #081736",
"<@	c #0A1938",
"[@	c #0C1E44",
"}@	c #0B1D45",
"|@	c #0F4051",
"1@	c #092B45",
"2@	c #0B2C48",
"3@	c #07233D",
"4@	c #17425D",
"5@	c #103545",
"6@	c #102D49",
"7@	c #0D2942",
"8@	c #0D1D41",
"9@	c #0B1B39",
"0@	c #09193D",
"a@	c #0A193E",
"b@	c #0C2C48",
"c@	c #0D2B48",
"d@	c #0F3947",
"e@	c #12314C",
"f@	c #0B2F4C",
"g@	c #0B2D45",
"h@	c #0C283F",
"i@	c #0D1F48",
"j@	c #072843",
"k@	c #0C244B",
"l@	c #062B45",
"m@	c #0D2B46",
"n@	c #103B4A",
"o@	c #0E2E49",
"p@	c #091F48",
"q@	c #071638",
"r@	c #0E1E46",
"s@	c #0E2D48",
"t@	c #0A2843",
"u@	c #0C1E42",
"v@	c #0B224A",
"w@	c #0A2338",
"x@	c #0B1E3E",
"y@	c #082338",
"z@	c #071739",
"A@	c #0C1C44",
"B@	c #0D3644",
"C@	c #0F2D49",
"D@	c #122751",
"E@	c #0C1C41",
"F@	c #07173B",
"G@	c #0A313E",
"H@	c #0D2E49",
"I@	c #092D4A",
"J@	c #072C48",
"K@	c #0D1C3E",
"L@	c #0B203D",
"M@	c #0C2343",
"N@	c #0E294A",
"O@	c #0B2040",
"P@	c #091938",
"Q@	c #07183A",
"R@	c #09183C",
"S@	c #081941",
"T@	c #072944",
"U@	c #092C48",
"V@	c #0C3746",
"W@	c #0F304B",
"X@	c #09233E",
"Y@	c #11334C",
"Z@	c #0C1E46",
"`@	c #072C4A",
" #	c #082F3E",
".#	c #102F4A",
"+#	c #0B1D46",
"@#	c #0C1F46",
"##	c #0C1C3E",
"$#	c #0A2242",
"%#	c #0A2040",
"&#	c #0A1E3D",
"*#	c #0B1F40",
"=#	c #081A3A",
"-#	c #08183B",
";#	c #10304A",
">#	c #123451",
",#	c #0B2742",
"'#	c #0A1B44",
")#	c #0D2A42",
"!#	c #0F1F43",
"~#	c #0B1D3E",
"{#	c #0B1C3B",
"]#	c #061D40",
"^#	c #0D1E45",
"/#	c #09243E",
"(#	c #082550",
"_#	c #0F2D48",
":#	c #0E3542",
"<#	c #0E2D47",
"[#	c #0B2945",
"}#	c #082741",
"|#	c #112347",
"1#	c #0B2144",
"2#	c #071A41",
"3#	c #091B40",
"4#	c #092843",
"5#	c #0A2F3F",
"6#	c #122D46",
"7#	c #0D3745",
"8#	c #0D2C45",
"9#	c #072E4C",
"0#	c #081E48",
"a#	c #06253F",
"b#	c #0B2D4A",
"c#	c #092D4B",
"d#	c #082641",
"e#	c #0F2940",
"f#	c #144452",
"g#	c #092842",
"h#	c #0C1D46",
"i#	c #081840",
"j#	c #0F2547",
"k#	c #07163B",
"l#	c #102045",
"m#	c #06163B",
"n#	c #071F34",
"o#	c #0E1E3C",
"p#	c #0C263D",
"q#	c #08233C",
"r#	c #041432",
"s#	c #051533",
"t#	c #091B45",
"u#	c #08243E",
"v#	c #07243F",
"w#	c #0D1C45",
"x#	c #0B1B3E",
"y#	c #071635",
"z#	c #041533",
"A#	c #0B1C45",
"B#	c #0A214B",
"C#	c #082640",
"D#	c #071937",
"E#	c #08183D",
"F#	c #091A41",
"G#	c #051633",
"H#	c #061734",
"  . + @ + + # $ % & * = - ; > , ' ) ! > ) ~ { ] ^ / ( + _ : < : ",
"[ } @ . | $ 1 2 3 4 * 5 6 7 8 ) 9 0 a 8 b ) c d e f g h i j k l ",
"m m n n o p q r s t u v w x y ! z u s A B v ! C D E F G H i j I ",
"J K L M N O P 4 9 8 Q 8 6 c 8 R R > ; S b > 6 5 T U { V W L n X ",
"Y N Z `  .> 6 ..+.A 8 @.#.{ $.%.+ &.*. .{ { 7 ! =.5 ~ d -.;.>.,.",
"7 '. .{ > z ).!.~.z 7 {.].^.m m + /.m N '.(._.:.> <.[.}.d -., |.",
"1.) 7 ~.2.{.> c #.> 3.' 8 4.5.$.6.L 7.8.= !.9.0.z #.a.b.~.c.R {.",
"v d.y u e.|.f.g.4.> > h.' > ' R { ; ; 9 i.@.j.A 8 :.i.@.!.A ~.k.",
"l.m.n.d o.p.q.r.s.t.4.u.h.v.w.! x.c z y.8 0 x @.A b  .S $.z.A.t ",
"{ B.q.K C.D.E.F.G.p.H.t ; 9 I.:.h.y.J.> d K.x.> ~.!.; N D.+ L.M.",
"{ N.U { O.P.+ m + Q.N H.7 9.R.z ' K.t S.T.H.U.U.> > n.V.W.X.Y.Z.",
"> 7 `.> e.z. +.+++@+#+F $+8 %+{ d z.&+*+=+-+V { > k.;+>+,+'+)+t.",
"!+7 ~+2.{+> S ]+^.t t ^+i.v./+(+r.P.G._+:+& <+[+ .> h.8 8 ; R 8 ",
"~ 7 > {.}+3.|+i.1+t s ! 2+3+U.4+G.F.5+G.6+7+[+<+s 8+;+9+z 3.> }+",
"d 0+ .F {+{.@.a+A @.b+#.c+d+O p.e+f+g+m h+p.i+@.i.j+k+l+:.S S > ",
"0+m+n+o+p+S S x.u.9 9 7 q+0+r+s+t+u+v+ +w+t T @.x x+y+{ t. .O N ",
"z+A+B+2 p.z.C+R { 9 D+7 7 7 E+F+G+H+; 8 U.(+= A I+J+H.p.r. +L  +",
"K+@ L+M+N+O+P+Q+R+S+T+U+V+W+X+Y+Z+T = F a.q+`+ @q+.@+@@@#@  W.$@",
"g+%@n &@W.2 O.R U.$+*@=@-@;@>@,@'@)@!@~@{@]@^@0.; * /@(@_@  + :@",
". + 6+n <@[@}@5.O > a.|@8 ;@U.;@1@2@3@4@k+6 5@6@7@; 0+8@9@+ W.G.",
"& J  +P.0@a@ . .b@c@d@e@f@g@h@i@j@k@4.l@t m@6 n@o@t p@* 8@D.P.q@",
".@.@N.O.O.r@O ; 6 A s@*@t@u@v@w@x@y@z@A@H.t 6 {@B@C@w.D@.@E@F@F@",
"{ T (.!..@t C+!.G@H@I@J@o.K@L@M@N@O@P@Q@R@S@T@U@V@W@7 S X@R K.; ",
":.c { Y@Z@) `.`@ #.#d +#@###$#%#&#*#=#-#C+C+7 ;#s z > S d K.t 8 ",
"x x s 6 c 7 { > >#c ,#'#)#!#~#{#%@$#]#a@^#/#(#_#8 z @.x.A A Q A ",
":.* s :#!.c > z <#[#~ }#C+$.|#w+1#2#3#Z@; C+4#:.5#> z 3.' 0.0.:.",
"{ 6#n.@.A :#G@!.7#{@;+8 :., 8#O 9#0#a#b#r@c c c#~ d#{.d S S e#t ",
"0@V p.t.; ; 7 6 !.A f#x z g#{.n.`@h#n.i.I+i.A 9 ; S i#j#,.k#l#m#",
"p+n#o#Z.'+p#S q#; s i.> {+> k.{.@.i.@.~.z z i.n.Z@h#Z.D.+ %.6+r#",
"m s#_ n n K@3 C+C+#+) t#7@u#> v#z @.u 7@+@f.n.w#x#z@q y#y#G.z#z#",
"L.G.s#G.$ L.P. +t C+#+A#B#$+C#) > Q = w@$ D#K E#G.L.L.G.G.s#s#z#",
"+ L.L.$ 6+L.G.+ K Z.A@t #+#+F#7 > x $.G.L.G.K G.s#G.+ L.G#H#G.G#"};
