/* XPM */
static char * player_up_xpm[] = {
"32 32 191 2",
"  	c #091937",
". 	c #081936",
"+ 	c #0A1B38",
"@ 	c #0A1A38",
"# 	c #071735",
"$ 	c #081939",
"% 	c #000000",
"& 	c #091A41",
"* 	c #0A2842",
"= 	c #092641",
"- 	c #0A313F",
"; 	c #082239",
"> 	c #051533",
", 	c #051633",
"' 	c #061734",
") 	c #081839",
"! 	c #09193A",
"~ 	c #C0A040",
"{ 	c #AA8834",
"] 	c #807020",
"^ 	c #092741",
"/ 	c #113846",
"( 	c #0E2942",
"_ 	c #0A2338",
": 	c #071937",
"< 	c #08183D",
"[ 	c #041533",
"} 	c #081836",
"| 	c #061634",
"1 	c #0C1C3A",
"2 	c #0D1C3E",
"3 	c #0C1B3D",
"4 	c #091941",
"5 	c #F2C44D",
"6 	c #0B3240",
"7 	c #0C2944",
"8 	c #0D2A45",
"9 	c #0D2942",
"0 	c #0B243D",
"a 	c #0B253E",
"b 	c #0C2841",
"c 	c #0D1C45",
"d 	c #0B1B3E",
"e 	c #071739",
"f 	c #0B1A3D",
"g 	c #071635",
"h 	c #E0E0E0",
"i 	c #09183D",
"j 	c #071F34",
"k 	c #0E1E3C",
"l 	c #0A1A3B",
"m 	c #0B2439",
"n 	c #0C263D",
"o 	c #09243D",
"p 	c #08233C",
"q 	c #0D2A44",
"r 	c #0C3341",
"s 	c #0C1E46",
"t 	c #0C1D46",
"u 	c #0B1A3C",
"v 	c #B0B0B0",
"w 	c #041432",
"x 	c #09193D",
"y 	c #0A1A41",
"z 	c #0B1B40",
"A 	c #0A243B",
"B 	c #0D2841",
"C 	c #0F2C47",
"D 	c #0D2B45",
"E 	c #081840",
"F 	c #0F2547",
"G 	c #06163B",
"H 	c #0A263F",
"I 	c #122D46",
"J 	c #D0D0D0",
"K 	c #0E3542",
"L 	c #0A313E",
"M 	c #0D3745",
"N 	c #082641",
"O 	c #07253F",
"P 	c #0F2940",
"Q 	c #0B2740",
"R 	c #0B2843",
"S 	c #102B44",
"T 	c #0E2B46",
"U 	c #0A2641",
"V 	c #0E2D47",
"W 	c #0B2945",
"X 	c #102E48",
"Y 	c #FFFFFF",
"Z 	c #123451",
"` 	c #0D3441",
" .	c #0A2743",
"..	c #072C4A",
"+.	c #082F3E",
"@.	c #102F4A",
"#.	c #07223B",
"$.	c #0B2943",
"%.	c #0000A0",
"&.	c #0D2E49",
"*.	c #09233C",
"=.	c #0F2047",
"-.	c #0E1E46",
";.	c #0A1941",
">.	c #0000E0",
",.	c #000060",
"'.	c #68541F",
").	c #0C1C41",
"!.	c #07173B",
"~.	c #0000C0",
"{.	c #0D1D41",
"].	c #071638",
"^.	c #0B1B39",
"/.	c #0000FF",
"(.	c #0C1E3F",
"_.	c #102341",
":.	c #081736",
"<.	c #0D2043",
"[.	c #091C3B",
"}.	c #071634",
"|.	c #0B1B43",
"1.	c #0E2A43",
"2.	c #0C2B46",
"3.	c #09233A",
"4.	c #0E2148",
"5.	c #0B2A45",
"6.	c #072E3B",
"7.	c #082040",
"8.	c #0F1F40",
"9.	c #112649",
"0.	c #082139",
"a.	c #091B39",
"b.	c #092237",
"c.	c #0C314B",
"d.	c #0B243C",
"e.	c #0E3543",
"f.	c #14344E",
"g.	c #082F3C",
"h.	c #0A2C45",
"i.	c #0C2B48",
"j.	c #0A1B42",
"k.	c #0A253E",
"l.	c #808080",
"m.	c #A5765E",
"n.	c #CA8F72",
"o.	c #E5A282",
"p.	c #08243D",
"q.	c #07233C",
"r.	c #072038",
"s.	c #0B2346",
"t.	c #0B2C43",
"u.	c #A0A0A0",
"v.	c #0F1E43",
"w.	c #051E33",
"x.	c #061637",
"y.	c #09193B",
"z.	c #0E1E3F",
"A.	c #0E1E43",
"B.	c #7F5A48",
"C.	c #0F2B47",
"D.	c #0E1F43",
"E.	c #051C3B",
"F.	c #0C1E3C",
"G.	c #909090",
"H.	c #0F3544",
"I.	c #102048",
"J.	c #0F1F41",
"K.	c #0C1D3B",
"L.	c #0B1C3A",
"M.	c #061937",
"N.	c #081837",
"O.	c #071836",
"P.	c #0B1C39",
"Q.	c #0D1E3B",
"R.	c #0C1B39",
"S.	c #112D46",
"T.	c #102D47",
"U.	c #0F3543",
"V.	c #0F1E41",
"W.	c #0A1C3B",
"X.	c #051634",
"Y.	c #091A38",
"Z.	c #0F1E3C",
"`.	c #091A3B",
" +	c #0E2841",
".+	c #09303E",
"++	c #0A2742",
"@+	c #0A1B3E",
"#+	c #081E3E",
"$+	c #041634",
"%+	c #051635",
"  . . + @ . #   $ % % % % % & * = - ; # . # $ # > #   . , ' # , ",
". # > # + . ) ! % ~ { { ] % % ^ = / ( _ + : $ < # . . # # > % [ ",
"} > | 1 1 2 3 4 % 5 ~ ~ { ] % % 6 7 8 9 0 a b c d e f g g % h [ ",
"i j k l m n o p % ~ 5 { { { % % % q 7 r 6 6 q b s t l u % v h w ",
"x y z A B B * C D % { 5 { ] % % % t b % % % % % % o E F % h h G ",
"H I b J J K L D M % ~ { { ] % % % % % % ] { ~ ~ % N O % v h P Q ",
"R S T J J U = 6 V W ~ { { ] % % % % ] ] ~ 5 5 % % = % % v h X R ",
"- - J Y J * H = Z U { ~ ~ { ] % % % ] { ~ ~ % % % % % v v h / ` ",
"R U J Y J ^  ...+.@.~ 5 ~ { ] % % % ] { ~ 5 % % % % % v h #.Q $.",
"H J J Y J Q 4 D %.&.5 ~ ~ { ] % % % ] ~ ] 5 % % % % v v h *.#.B ",
"=.Y J v Y -.;.>.%.,.~ '.~ { ] ] % { ] { ~ ~ % % % % v h =.).!.!.",
"v Y Y v Y J ~.>.%.%.,.~ '.~ { ] % ] { ~ ~ % % % % v v h {.u ) ].",
"J Y Y J Y J ~.>.{ %.,.,.~ '.'.] % ] { '.] { { ~ % v h {.^.  J # ",
"Y v J J Y ~./.>.~ %.,.,.~ ~ ~ '.% '.'.{ { { 5 ~ v v h (._.v J :.",
"Y Y J Y Y ~./.>.~ %.%.,.{ 5 ~ ~ % { { { ~ 5 ~ % v h 0 <.[.v Y }.",
"Y J Y J ~././.~ ~.%.%.,.,.~ ] ] { ] ~ ~ 5 ~ ~ 5 5 h |.z J Y J ! ",
"Y J Y J ~././.5 ~.%.%.,.,.] { ~ { ~ ] ~ ~ % 1.7 5 5 2.H J v ;.3.",
"J Y v J ~././.5 ~.%.%.,.,.] { ~ { ~ ~ ] % % 4.{ { 5 5 Y J v o = ",
"J Y v Y ~.~ 5 5 5 ~ { ,.,.{ { ~ { ~ 5 ~ @ % { { ~ { 5.v Y Y = 6.",
"J Y v J ~././.5 ~.%.%.,.,.{ { { ~ ~ 5 ~ 7.8.{ ~ 5 { Y v Y J *.$.",
"J J Y J Y /./.5 ~.%.%.,.,.{ { { ~ ~ 5 ~ 9.{ { { ~ Y Y J v J 0.A ",
"J J Y v Y ~./.~ ~.%.,.,.~ ~ ] { { { ] 5 { { ~ ~ { v Y J v Y a.l ",
"H J J v J Y /.~.~.%.,.~ ~ { { ~ ] ~ ~ { ] ~ ~ 5 ~ J v Y J Y . b.",
"c.J J Y J Y J ~.~.~ { { { ~ ~ ~ ] ~ ~ ~ { { 5 ~ v J v Y J J d.Q ",
"e.f.Y v J v Y J J { ~ ~ ~ ~ 5 ~ ] ~ 5 5 ~ ~ { J v Y J Y v ` r g.",
"h.^ Y v Y v Y ~ ~ ~ 5 5 5 ~ ~ ] ] ] ~ ~ 5 5 ~ ~ { { J J Y i.*.O ",
"* j.k.v Y J ~ 5 5 5 ~ ~ ~ l.m.n.o.m.l.Y ~ ~ 5 5 5 ~ ~ Y J p.q.r.",
"s.3.t.J v J v Y J J Y Y u.l.n.o.o.o.l.k.Y J Y J Y J Y J p.v.w.x.",
"y.$ z.A.J Y v J v Y Y $.l.u.n.B.o.B.l.o C.Y v J Y v J v D.z.1 E.",
"} } 1 1 F.Y J Y v J 8 G.u.l.G.n.o.u.G.` H.Y v J J v Y I.J.K.L.M.",
"N.O.P.Q.R.+ J Y J S.S T.G.u.u.G.G.u.U.$.C.^ J Y J J Y V.K.L.W.X.",
"Y.Q.  P.    Z.+ `.8.S (  +B l.G.u.^ .+= ^ ++H Y Y @+#+  | $+%+$+"};
