/* XPM */
static char * player_xpm[] = {
"32 32 191 2",
"  	c #091A38",
". 	c #0D1E3B",
"+ 	c #091937",
"@ 	c #0B1C39",
"# 	c #0F1E3C",
"$ 	c #0A1B38",
"% 	c #091A3B",
"& 	c #0F1F40",
"* 	c #102B44",
"= 	c #0E2942",
"- 	c #0E2841",
"; 	c #0D2841",
"> 	c #808080",
", 	c #909090",
"' 	c #A0A0A0",
") 	c #092741",
"! 	c #09303E",
"~ 	c #092641",
"{ 	c #0A2742",
"] 	c #0A263F",
"^ 	c #FFFFFF",
"/ 	c #0A1B3E",
"( 	c #081E3E",
"_ 	c #061634",
": 	c #041634",
"< 	c #051635",
"[ 	c #081837",
"} 	c #071836",
"| 	c #0C1B39",
"1 	c #D0D0D0",
"2 	c #112D46",
"3 	c #102D47",
"4 	c #0F3543",
"5 	c #0B2943",
"6 	c #0F2B47",
"7 	c #0F1E41",
"8 	c #0C1D3B",
"9 	c #0B1C3A",
"0 	c #0A1C3B",
"a 	c #051634",
"b 	c #081836",
"c 	c #0C1C3A",
"d 	c #0C1E3C",
"e 	c #B0B0B0",
"f 	c #0D2A45",
"g 	c #CA8F72",
"h 	c #E5A282",
"i 	c #0D3441",
"j 	c #0F3544",
"k 	c #102048",
"l 	c #0F1F41",
"m 	c #061937",
"n 	c #09193B",
"o 	c #081939",
"p 	c #0E1E3F",
"q 	c #0E1E43",
"r 	c #7F5A48",
"s 	c #09243D",
"t 	c #0E1F43",
"u 	c #051C3B",
"v 	c #0B2346",
"w 	c #09233A",
"x 	c #0B2C43",
"y 	c #0A253E",
"z 	c #08243D",
"A 	c #0F1E43",
"B 	c #051E33",
"C 	c #061637",
"D 	c #0A2842",
"E 	c #0A1B42",
"F 	c #C0A040",
"G 	c #F2C44D",
"H 	c #A5765E",
"I 	c #07233C",
"J 	c #072038",
"K 	c #0A2C45",
"L 	c #807020",
"M 	c #AA8834",
"N 	c #0C2B48",
"O 	c #09233C",
"P 	c #07253F",
"Q 	c #0E3543",
"R 	c #14344E",
"S 	c #0C3341",
"T 	c #082F3C",
"U 	c #0C314B",
"V 	c #0000C0",
"W 	c #0B243C",
"X 	c #0B2740",
"Y 	c #0000FF",
"Z 	c #0000A0",
"` 	c #000060",
" .	c #081936",
"..	c #092237",
"+.	c #091B39",
"@.	c #0A1A3B",
"#.	c #112649",
"$.	c #082139",
"%.	c #0A243B",
"&.	c #082040",
"*.	c #0A1A38",
"=.	c #000000",
"-.	c #0B2A45",
";.	c #072E3B",
">.	c #0E2148",
",.	c #0E2A43",
"'.	c #0C2944",
").	c #0C2B46",
"!.	c #0A1941",
"~.	c #E0E0E0",
"{.	c #0B1B43",
"].	c #0B1B40",
"^.	c #09193A",
"/.	c #0000E0",
"(.	c #0B243D",
"_.	c #0D2043",
":.	c #091C3B",
"<.	c #071634",
"[.	c #68541F",
"}.	c #0C1E3F",
"|.	c #102341",
"1.	c #081736",
"2.	c #0D1D41",
"3.	c #0B1B39",
"4.	c #071735",
"5.	c #0B1A3C",
"6.	c #081839",
"7.	c #071638",
"8.	c #0F2047",
"9.	c #0E1E46",
"0.	c #0C1C41",
"a.	c #07173B",
"b.	c #091941",
"c.	c #0D2B45",
"d.	c #0D2E49",
"e.	c #07223B",
"f.	c #0B2843",
"g.	c #0A2641",
"h.	c #0A2743",
"i.	c #072C4A",
"j.	c #082F3E",
"k.	c #102F4A",
"l.	c #0A313F",
"m.	c #123451",
"n.	c #113846",
"o.	c #0E2B46",
"p.	c #0B3240",
"q.	c #0E2D47",
"r.	c #0B2945",
"s.	c #102E48",
"t.	c #122D46",
"u.	c #0C2841",
"v.	c #0E3542",
"w.	c #0A313E",
"x.	c #0D3745",
"y.	c #082641",
"z.	c #0F2940",
"A.	c #09193D",
"B.	c #0A1A41",
"C.	c #0F2C47",
"D.	c #0C1D46",
"E.	c #081840",
"F.	c #0F2547",
"G.	c #06163B",
"H.	c #09183D",
"I.	c #071F34",
"J.	c #0E1E3C",
"K.	c #0B2439",
"L.	c #0C263D",
"M.	c #08233C",
"N.	c #0D2A44",
"O.	c #0C1E46",
"P.	c #041432",
"Q.	c #051533",
"R.	c #0D1C3E",
"S.	c #0C1B3D",
"T.	c #0D2942",
"U.	c #0B253E",
"V.	c #0D1C45",
"W.	c #0B1B3E",
"X.	c #071739",
"Y.	c #0B1A3D",
"Z.	c #071635",
"`.	c #041533",
" +	c #0A2338",
".+	c #071937",
"++	c #08183D",
"@+	c #091A41",
"#+	c #082239",
"$+	c #051633",
"%+	c #061734",
"  . + @ + + # $ % & * = - ; > , ' ) ! ~ ) { ] ^ ^ / ( + _ : < : ",
"[ } @ . | $ 1 ^ 1 2 * 3 , ' ' , , ' 4 5 6 ) 1 ^ 1 1 ^ 7 8 9 0 a ",
"b b c c d ^ 1 ^ e 1 f , ' > , g h ' , i j ^ e 1 1 e ^ k l 8 9 m ",
"n o p q 1 ^ e 1 e ^ ^ 5 > ' g r h r > s 6 ^ e 1 ^ e 1 e t p c u ",
"v w x 1 e 1 e ^ 1 1 ^ ^ ' > g h h h > y ^ 1 ^ 1 ^ 1 ^ 1 z A B C ",
"D E y e ^ 1 F G G G F F F > H g h H > ^ F F G G G F F ^ 1 z I J ",
"K ) ^ e ^ e ^ F F F G G G F F L L L F F G G F F M M 1 1 ^ N O P ",
"Q R ^ e 1 e ^ 1 1 M F F F F G F L F G G F F M 1 e ^ 1 ^ e i S T ",
"U 1 1 ^ 1 ^ 1 V V F M M M F F F L F F F M M G F e 1 e ^ 1 1 W X ",
"] 1 1 e 1 ^ Y V V Z ` F F M M F L F F M L F F G F 1 e ^ 1 ^  ...",
"1 1 ^ e ^ V Y F V Z ` ` F F L M M M L G M M F F M e ^ 1 e ^ +.@.",
"1 1 ^ 1 ^ Y Y G V Z Z ` ` M M M F F G F #.M M M F ^ ^ 1 e 1 $.%.",
"1 ^ e 1 V Y Y G V Z Z ` ` M M M F F G F &.& M F G M ^ e ^ 1 O 5 ",
"1 ^ e ^ V F G G G F M ` ` M M F M F G F *.=.M M F M -.e ^ ^ ~ ;.",
"1 ^ e 1 V Y Y G V Z Z ` ` L M F M F F L =.=.>.M M G G ^ 1 e s ~ ",
"^ 1 ^ 1 V Y Y G V Z Z ` ` L M F M F L F F =.,.'.G G ).] 1 e !.w ",
"^ 1 ^ 1 V Y Y F V Z Z ` ` F L L M L F F G F F G G ~.{.].1 ^ 1 ^.",
"^ ^ 1 ^ ^ V Y /.F Z Z ` M G F F =.M M M F G F =.e ~.(._.:.e ^ <.",
"^ e 1 1 ^ V Y /.F Z ` ` F F F [.=.[.[.M M M G F e e ~.}.|.e 1 1.",
"1 ^ ^ 1 ^ 1 V /.M Z ` ` F [.[.L =.L M [.L M M F =.e ~.2.3.+ 1 4.",
"e ^ ^ e ^ 1 V /.Z Z ` F [.F M L =.L M F F =.=.=.=.e e ~.2.5.6.7.",
"8.^ 1 e ^ 9.!./.Z ` F [.F M L L =.M L M F F =.=.=.=.e ~.8.0.a.a.",
"] 1 1 ^ 1 X b.c.Z d.G F F M L =.=.=.L F L G =.=.=.=.e e ~.O e.; ",
"f.g.1 ^ 1 ) h.i.j.k.F G F M L =.=.=.L M F G =.=.=.=.=.e ~.e.X 5 ",
"l.l.1 ^ 1 D ] ~ m.g.M F F M L =.=.=.L M F F =.=.=.=.=.e e ~.n.i ",
"f.* o.1 1 g.~ p.q.r.F M M L =.=.=.=.L L F G G =.=.~ =.=.e ~.s.f.",
"] t.u.1 1 v.w.c.x.=.F M M L =.=.=.=.=.=.L M F F =.y.P =.e ~.z.X ",
"A.B.].%.; ; D C.c.=.M G M L =.=.=.D.u.=.=.=.=.=.=.s E.F.=.~.~.G.",
"H.I.J.@.K.L.s M.=.F G M M M =.=.=.N.'.S p.p.N.u.O.D.@.5.=.e ~.P.",
"b Q._ c c R.S.b.=.G F F M L =.=.p.'.f T.(.U.u.V.W.X.Y.Z.Z.=.~.`.",
" .4.Q.4.$  .6.^.=.F M M L =.=.) ~ n.=  +$ .+o ++4. . .4.4.Q.=.`.",
"+  . .$ *. .4.+ o =.=.=.=.=.@+D ~ l.#+4. .4.o 4.Q.4.+  .$+%+4.$+"};
