/* XPM */
static char * tiles_xpm[] = {
"16 16 16 1",
" 	c #000000",
".	c #A1A1A1",
"+	c #FFFFFF",
"@	c #BE3241",
"#	c #DF7A92",
"$	c #574A38",
"%	c #A7702D",
"&	c #EA903E",
"*	c #F7E176",
"=	c #3C565C",
"-	c #529023",
";	c #A6CD33",
">	c #24323F",
",	c #00648C",
"'	c #3EA5F2",
")	c #B3DBEE",
">>            >>",
"> .. ......... >",
" ...,+......... ",
" .++,.++++++++. ",
"  ,, ,,  ,,,,   ",
" ......  ,..... ",
" +......,...... ",
" +......,+..... ",
" +......,+..... ",
" ++....+,+....+ ",
" .+++++. +++++. ",
" .,,,,,, .,,,,, ",
" .,,,,,, .,,,,, ",
" .,,,,,, .,,,,, ",
" .,,,,,, .,,,,,>",
">>,,,,,,>.,,,,>>"};
