/* XPM */
static char * collectible_xpm[] = {
"32 32 947 2",
"  	c #091A38",
". 	c #0D1E3B",
"+ 	c #091937",
"@ 	c #0B1C39",
"# 	c #0F1E3C",
"$ 	c #0A1B38",
"% 	c #1B1A40",
"& 	c #381E4E",
"* 	c #45295C",
"= 	c #4C275E",
"- 	c #522561",
"; 	c #64246D",
"> 	c #6B216D",
", 	c #6C1E6D",
"' 	c #6D206E",
") 	c #6B226D",
"! 	c #642B6C",
"~ 	c #512361",
"{ 	c #4C255D",
"] 	c #44255B",
"^ 	c #36254E",
"/ 	c #1D204B",
"( 	c #071838",
"_ 	c #0A1B3E",
": 	c #081E3E",
"< 	c #061634",
"[ 	c #041634",
"} 	c #051635",
"| 	c #081837",
"1 	c #071836",
"2 	c #0C1B39",
"3 	c #171C40",
"4 	c #371C4D",
"5 	c #4D195B",
"6 	c #64286F",
"7 	c #6D2670",
"8 	c #6D2871",
"9 	c #6D2771",
"0 	c #732271",
"a 	c #E90E8A",
"b 	c #F20289",
"c 	c #F1027E",
"d 	c #E40676",
"e 	c #732E71",
"f 	c #6B246E",
"g 	c #6B266F",
"h 	c #68226D",
"i 	c #64226D",
"j 	c #4C235C",
"k 	c #372C54",
"l 	c #161E47",
"m 	c #0E2041",
"n 	c #0F1E41",
"o 	c #0C1D3B",
"p 	c #0B1C3A",
"q 	c #0A1C3B",
"r 	c #051634",
"s 	c #081836",
"t 	c #0C1C3A",
"u 	c #0C1E3C",
"v 	c #1B1A41",
"w 	c #411953",
"x 	c #621E72",
"y 	c #6D2671",
"z 	c #762272",
"A 	c #F61692",
"B 	c #FA1491",
"C 	c #FA0F8D",
"D 	c #F31290",
"E 	c #EF068A",
"F 	c #E10082",
"G 	c #E0007C",
"H 	c #EA007D",
"I 	c #DD0282",
"J 	c #D80C84",
"K 	c #DA1289",
"L 	c #CF1488",
"M 	c #71296D",
"N 	c #6B2670",
"O 	c #61266F",
"P 	c #42205D",
"Q 	c #1B2744",
"R 	c #102048",
"S 	c #0F1F41",
"T 	c #061937",
"U 	c #09193B",
"V 	c #081939",
"W 	c #0E1E3F",
"X 	c #181E45",
"Y 	c #36224A",
"Z 	c #4C175D",
"` 	c #64276F",
" .	c #762774",
"..	c #F62299",
"+.	c #FA1C99",
"@.	c #FF1897",
"#.	c #FF1A99",
"$.	c #FF1997",
"%.	c #FF269D",
"&.	c #F3299C",
"*.	c #DF2295",
"=.	c #CF0284",
"-.	c #C9007E",
";.	c #C1007F",
">.	c #C90184",
",.	c #D4098A",
"'.	c #DD128E",
").	c #DA0D87",
"!.	c #DB0583",
"~.	c #71246D",
"{.	c #64246E",
"].	c #4C245C",
"^.	c #36194F",
"/.	c #181F45",
"(.	c #051C3B",
"_.	c #0B2346",
":.	c #09233A",
"<.	c #0B2C43",
"[.	c #37254D",
"}.	c #5F2168",
"|.	c #6D226F",
"1.	c #762775",
"2.	c #F62BA2",
"3.	c #FF29A1",
"4.	c #FF239E",
"5.	c #FF1998",
"6.	c #FF1A98",
"7.	c #FE2199",
"8.	c #E71793",
"9.	c #D52496",
"0.	c #C50486",
"a.	c #C50081",
"b.	c #C90083",
"c.	c #C6007F",
"d.	c #C60183",
"e.	c #BD0082",
"f.	c #C90081",
"g.	c #D90082",
"h.	c #DB0580",
"i.	c #71276F",
"j.	c #36234C",
"k.	c #0F1E43",
"l.	c #051E33",
"m.	c #061637",
"n.	c #0A2842",
"o.	c #0A1B42",
"p.	c #1B2543",
"q.	c #6D2273",
"r.	c #F565BE",
"s.	c #FA69D3",
"t.	c #FF67C2",
"u.	c #FF42A8",
"v.	c #FF219C",
"w.	c #FF1496",
"x.	c #FF1A97",
"y.	c #F60C90",
"z.	c #DD078D",
"A.	c #D10C8B",
"B.	c #BF007F",
"C.	c #B7007A",
"D.	c #B4007F",
"E.	c #BC0081",
"F.	c #C30484",
"G.	c #B50081",
"H.	c #B4007D",
"I.	c #C40078",
"J.	c #D60079",
"K.	c #CA0374",
"L.	c #B70871",
"M.	c #682972",
"N.	c #1A2442",
"O.	c #07233C",
"P.	c #072038",
"Q.	c #0A2C45",
"R.	c #152743",
"S.	c #412656",
"T.	c #642E6D",
"U.	c #752A74",
"V.	c #FA59B2",
"W.	c #FF5AB9",
"X.	c #FF5FBD",
"Y.	c #FF57BC",
"Z.	c #FF4EB4",
"`.	c #FF2C9F",
" +	c #FF1493",
".+	c #FF1693",
"++	c #F31492",
"@+	c #E0138F",
"#+	c #D41690",
"$+	c #C4148C",
"%+	c #B80685",
"&+	c #B00183",
"*+	c #B20886",
"=+	c #BA0C86",
"-+	c #B90885",
";+	c #B40684",
">+	c #B70082",
",+	c #C0007F",
"'+	c #CD007C",
")+	c #C5027A",
"!+	c #6F316F",
"~+	c #41295B",
"{+	c #15233F",
"]+	c #07253F",
"^+	c #0E3543",
"/+	c #393359",
"(+	c #612F6E",
"_+	c #762676",
":+	c #F645AD",
"<+	c #FF53B6",
"[+	c #FF5EBC",
"}+	c #FF54B9",
"|+	c #FF4DB2",
"1+	c #FF47AF",
"2+	c #FF48AB",
"3+	c #FF219B",
"4+	c #FF1D98",
"5+	c #F31E98",
"6+	c #E21F94",
"7+	c #D32899",
"8+	c #C81E92",
"9+	c #B80F89",
"0+	c #B31A8D",
"a+	c #B22491",
"b+	c #B01489",
"c+	c #AF0683",
"d+	c #AE017E",
"e+	c #AE017F",
"f+	c #BA0885",
"g+	c #C4108A",
"h+	c #D3158D",
"i+	c #BD0C85",
"j+	c #6F2570",
"k+	c #612F6D",
"l+	c #37324F",
"m+	c #082F3C",
"n+	c #1C314F",
"o+	c #4D2861",
"p+	c #6D2471",
"q+	c #F64FB0",
"r+	c #FF59B7",
"s+	c #FF66BD",
"t+	c #FF5BB8",
"u+	c #FF4EB1",
"v+	c #FF3FA7",
"w+	c #FF49AD",
"x+	c #FF42A4",
"y+	c #FF1F99",
"z+	c #FE2097",
"A+	c #ED2699",
"B+	c #D92698",
"C+	c #CD2E9C",
"D+	c #BA0586",
"E+	c #B20985",
"F+	c #B11B8C",
"G+	c #A71488",
"H+	c #A80983",
"I+	c #A5007A",
"J+	c #A60076",
"K+	c #A7007B",
"L+	c #AD0983",
"M+	c #BB1189",
"N+	c #C8168D",
"O+	c #D81891",
"P+	c #C80C85",
"Q+	c #681D6A",
"R+	c #4C225B",
"S+	c #1C2744",
"T+	c #761D73",
"U+	c #FA48AF",
"V+	c #FF4AB2",
"W+	c #FF61B9",
"X+	c #FF5BB9",
"Y+	c #FF4BAB",
"Z+	c #FF2DA0",
"`+	c #FF3AA4",
" @	c #FF45AA",
".@	c #FF299D",
"+@	c #FA1E96",
"@@	c #E32499",
"#@	c #D12798",
"$@	c #C7379E",
"%@	c #BF2494",
"&@	c #BA2292",
"*@	c #B52692",
"=@	c #A7188B",
"-@	c #A30884",
";@	c #9D007B",
">@	c #980076",
",@	c #A2027C",
"'@	c #A60E82",
")@	c #B11D8C",
"!@	c #C22796",
"~@	c #CD2194",
"{@	c #D3108B",
"]@	c #711569",
"^@	c #631669",
"/@	c #362148",
"(@	c #442459",
"_@	c #6D1C75",
":@	c #F644AD",
"<@	c #FF43B0",
"[@	c #FF3AAB",
"}@	c #FF50AD",
"|@	c #FF35A1",
"1@	c #FF249A",
"2@	c #FF30A1",
"3@	c #FF53B9",
"4@	c #FF36A1",
"5@	c #F42C9E",
"6@	c #E12398",
"7@	c #CC2297",
"8@	c #C6349B",
"9@	c #C847A6",
"0@	c #C23CA0",
"a@	c #BB399D",
"b@	c #AD2A93",
"c@	c #A81E8C",
"d@	c #A21284",
"e@	c #9E1082",
"f@	c #A41788",
"g@	c #AA1D8D",
"h@	c #B0218F",
"i@	c #BC2190",
"j@	c #C6198F",
"k@	c #CF178D",
"l@	c #DD1C91",
"m@	c #6B176A",
"n@	c #441957",
"o@	c #4C245D",
"p@	c #FA43AA",
"q@	c #FF44B0",
"r@	c #FF3EAC",
"s@	c #FF34A3",
"t@	c #FF239B",
"u@	c #FF1996",
"v@	c #FF1595",
"w@	c #FF289C",
"x@	c #FF4BAD",
"y@	c #FF56C1",
"z@	c #F34EAE",
"A@	c #DA2D9B",
"B@	c #C72394",
"C@	c #C4349B",
"D@	c #C644A3",
"E@	c #C03DA0",
"F@	c #BD45A3",
"G@	c #B640A1",
"H@	c #B13C9E",
"I@	c #A83597",
"J@	c #A1278E",
"K@	c #A6228E",
"L@	c #A81C8E",
"M@	c #AD188A",
"N@	c #B91588",
"O@	c #C30D8A",
"P@	c #D20C8A",
"Q@	c #DD138A",
"R@	c #6A1C6A",
"S@	c #4C225A",
"T@	c #512C60",
"U@	c #6D246F",
"V@	c #FA3DA8",
"W@	c #FF44AF",
"X@	c #FF40AD",
"Y@	c #FF2DA1",
"Z@	c #FF1497",
"`@	c #FF1E99",
" #	c #FF299B",
".#	c #FF37A1",
"+#	c #F449A8",
"@#	c #FF5CCE",
"##	c #EE50AE",
"$#	c #D546A3",
"%#	c #CE3EA2",
"&#	c #C73DA1",
"*#	c #C94AA7",
"=#	c #C750A8",
"-#	c #C350A6",
";#	c #C149AB",
">#	c #B643A6",
",#	c #B03C9F",
"'#	c #AA3698",
")#	c #AA2591",
"!#	c #A8158A",
"~#	c #AF1688",
"{#	c #C42995",
"]#	c #DB2CA7",
"^#	c #DC2C9F",
"/#	c #DB1890",
"(#	c #6B1E6B",
"_#	c #522663",
":#	c #64236D",
"<#	c #762475",
"[#	c #FA3BA7",
"}#	c #FF41AC",
"|#	c #FF31A5",
"1#	c #FF1F9B",
"2#	c #FF2FA0",
"3#	c #FF3DA2",
"4#	c #FC48A5",
"5#	c #F44BA7",
"6#	c #FF5AC2",
"7#	c #EC53AE",
"8#	c #E783C2",
"9#	c #E091C9",
"0#	c #D46AB4",
"a#	c #D36CB7",
"b#	c #D883C0",
"c#	c #C453A7",
"d#	c #CB55AF",
"e#	c #BE4AAB",
"f#	c #B742A6",
"g#	c #B23C9C",
"h#	c #AC2591",
"i#	c #B11E8D",
"j#	c #D034A5",
"k#	c #FF3DD4",
"l#	c #FF3CE9",
"m#	c #FF37DB",
"n#	c #E92EA1",
"o#	c #73206F",
"p#	c #63296A",
"q#	c #6D206D",
"r#	c #F632A2",
"s#	c #FF34A5",
"t#	c #FF31A6",
"u#	c #FF32A5",
"v#	c #FF3AAA",
"w#	c #FF3EAA",
"x#	c #FF46A4",
"y#	c #FF47A3",
"z#	c #FE48A1",
"A#	c #F94DA9",
"B#	c #FF55AF",
"C#	c #E156AB",
"D#	c #D054A1",
"E#	c #DF94C5",
"F#	c #E7AACE",
"G#	c #E097C7",
"H#	c #DF8BC4",
"I#	c #D68AC3",
"J#	c #CA5AAF",
"K#	c #D056B2",
"L#	c #C24AAD",
"M#	c #CC45B1",
"N#	c #DB42B9",
"O#	c #EF43C5",
"P#	c #FF44DA",
"Q#	c #EC39C5",
"R#	c #C22A9D",
"S#	c #C52594",
"T#	c #DF1F93",
"U#	c #EF168C",
"V#	c #6D216F",
"W#	c #6D1970",
"X#	c #FA1898",
"Y#	c #FF33A5",
"Z#	c #FF3FAA",
"`#	c #FF3FA9",
" $	c #FF3DA7",
".$	c #FF41A8",
"+$	c #FF4BA6",
"@$	c #FF4BA1",
"#$	c #FF4DA3",
"$$	c #F351AA",
"%$	c #E252A8",
"&$	c #D556A9",
"*$	c #E495CA",
"=$	c #FFC9F5",
"-$	c #FFFFFF",
";$	c #FCD0E6",
">$	c #EB86BF",
",$	c #E066B9",
"'$	c #E35CBA",
")$	c #E758C8",
"!$	c #FB57DD",
"~$	c #EB4CCE",
"{$	c #CA3BAF",
"]$	c #BA3199",
"^$	c #B31C8D",
"/$	c #AC057F",
"($	c #B8007C",
"_$	c #DC0685",
":$	c #F91390",
"<$	c #6D1F6C",
"[$	c #6D1A6D",
"}$	c #FA1E9C",
"|$	c #FF2FA4",
"1$	c #FF27A1",
"2$	c #FF179A",
"3$	c #FF1294",
"4$	c #FF1B97",
"5$	c #FF45A4",
"6$	c #FF4CA1",
"7$	c #FF51A4",
"8$	c #EE55A6",
"9$	c #DA5DAB",
"0$	c #D665AF",
"a$	c #FDACD7",
"b$	c #FFC7E2",
"c$	c #FFC8FF",
"d$	c #FF8AF2",
"e$	c #FF71E2",
"f$	c #FB60DD",
"g$	c #D74DC0",
"h$	c #BA3CA3",
"i$	c #AA1085",
"j$	c #AB007E",
"k$	c #A9007B",
"l$	c #B7007D",
"m$	c #D60083",
"n$	c #F9128D",
"o$	c #6D166C",
"p$	c #6D1C6D",
"q$	c #FA1297",
"r$	c #FF229D",
"s$	c #FF1E9B",
"t$	c #FF0A94",
"u$	c #FF0F95",
"v$	c #FF249B",
"w$	c #FF51AF",
"x$	c #FF57A9",
"y$	c #FF62AB",
"z$	c #E85EA7",
"A$	c #D660A9",
"B$	c #D564AC",
"C$	c #E97EB6",
"D$	c #F6ABC8",
"E$	c #FED9E8",
"F$	c #FFF8FD",
"G$	c #FFF1FF",
"H$	c #FFB6EB",
"I$	c #D26EB8",
"J$	c #BF61AB",
"K$	c #BC55A9",
"L$	c #AB3E9D",
"M$	c #A43092",
"N$	c #A21F8A",
"O$	c #A00D82",
"P$	c #A7017D",
"Q$	c #AF027F",
"R$	c #C20A85",
"S$	c #D30583",
"T$	c #F90F8A",
"U$	c #6C136A",
"V$	c #6D176B",
"W$	c #F61B99",
"X$	c #FF1F9C",
"Y$	c #FF3AA8",
"Z$	c #FE3FA8",
"`$	c #EB4EAD",
" %	c #D5369D",
".%	c #EB449B",
"+%	c #D74998",
"@%	c #C6509E",
"#%	c #BE4F9F",
"$%	c #C466AB",
"%%	c #CC7DB5",
"&%	c #DE99C6",
"*%	c #FFB6E8",
"=%	c #E08BC7",
"-%	c #B756A4",
";%	c #9D2C8B",
">%	c #9F2888",
",%	c #9A348F",
"'%	c #973391",
")%	c #9A268B",
"!%	c #9C1D89",
"~%	c #A11385",
"{%	c #A91083",
"]%	c #B81989",
"^%	c #C92190",
"/%	c #DA2291",
"(%	c #F51C92",
"_%	c #6D146A",
":%	c #641A6A",
"<%	c #76166F",
"[%	c #FA1293",
"}%	c #FF0792",
"|%	c #FF1293",
"1%	c #FB279C",
"2%	c #F536A3",
"3%	c #E12D9E",
"4%	c #C92698",
"5%	c #E24AA7",
"6%	c #CF4499",
"7%	c #AC3992",
"8%	c #9B2889",
"9%	c #A53892",
"0%	c #AC489A",
"a%	c #AD4799",
"b%	c #B053A1",
"c%	c #AD50A0",
"d%	c #A24197",
"e%	c #962B89",
"f%	c #8D2D86",
"g%	c #8F308A",
"h%	c #892788",
"i%	c #901C85",
"j%	c #9B1D87",
"k%	c #AB298F",
"l%	c #C42B99",
"m%	c #E22CA5",
"n%	c #FC2DAC",
"o%	c #FA33B1",
"p%	c #76176F",
"q%	c #631468",
"r%	c #521D61",
"s%	c #FA1595",
"t%	c #FF0C93",
"u%	c #FA0E91",
"v%	c #F01A94",
"w%	c #E72D9D",
"x%	c #D73FA5",
"y%	c #C42F99",
"z%	c #C6389C",
"A%	c #CE3FA4",
"B%	c #9A2A8A",
"C%	c #82127C",
"D%	c #851C82",
"E%	c #912484",
"F%	c #902985",
"G%	c #91308A",
"H%	c #95378E",
"I%	c #8F3089",
"J%	c #832A85",
"K%	c #87338A",
"L%	c #933592",
"M%	c #983395",
"N%	c #A32F96",
"O%	c #B8309C",
"P%	c #CF30A3",
"Q%	c #F832B5",
"R%	c #FF35C4",
"S%	c #FF36C9",
"T%	c #FA35C6",
"U%	c #6D156E",
"V%	c #51145D",
"W%	c #451E5E",
"X%	c #6D1C71",
"Y%	c #FF0F93",
"Z%	c #F20D8E",
"`%	c #EB1390",
" &	c #D81E92",
".&	c #CE2F99",
"+&	c #C02F99",
"@&	c #BE3398",
"#&	c #DB3FBD",
"$&	c #95308F",
"%&	c #7C147E",
"&&	c #76177F",
"*&	c #6B0E76",
"=&	c #701174",
"-&	c #721B79",
";&	c #751F7E",
">&	c #6D1B7C",
",&	c #81348A",
"'&	c #943898",
")&	c #A237A0",
"!&	c #9E3097",
"~&	c #A92E99",
"{&	c #BC2DA0",
"]&	c #D730AB",
"^&	c #FF35C1",
"/&	c #FF33CE",
"(&	c #FF34CE",
"_&	c #FA35C0",
":&	c #6C156F",
"<&	c #4B155A",
"[&	c #64256E",
"}&	c #761B73",
"|&	c #FA1996",
"1&	c #EF128F",
"2&	c #E4118E",
"3&	c #CB0E8B",
"4&	c #B91488",
"5&	c #BB2A93",
"6&	c #CB35AC",
"7&	c #EE42D1",
"8&	c #A23C9B",
"9&	c #710B79",
"0&	c #670D77",
"a&	c #650E76",
"b&	c #5F076F",
"c&	c #5E056C",
"d&	c #5C076D",
"e&	c #52006A",
"f&	c #782F89",
"g&	c #93349B",
"h&	c #902C90",
"i&	c #8E298A",
"j&	c #97278B",
"k&	c #B12796",
"l&	c #D52CAF",
"m&	c #E62DBA",
"n&	c #DF28AC",
"o&	c #E429A1",
"p&	c #CE2196",
"q&	c #681E6C",
"r&	c #44265A",
"s&	c #1C2847",
"t&	c #6D216E",
"u&	c #F61D95",
"v&	c #F21293",
"w&	c #D80B8B",
"x&	c #C20484",
"y&	c #AA067F",
"z&	c #A82284",
"A&	c #E334B5",
"B&	c #EA3DCB",
"C&	c #AB31A6",
"D&	c #6F0A77",
"E&	c #5E006C",
"F&	c #570067",
"G&	c #510065",
"H&	c #510064",
"I&	c #500067",
"J&	c #51006A",
"K&	c #6F2782",
"L&	c #7B288B",
"M&	c #7C2589",
"N&	c #812487",
"O&	c #95238D",
"P&	c #AC2498",
"Q&	c #C325A5",
"R&	c #C0239E",
"S&	c #B82091",
"T&	c #BA0F85",
"U&	c #6C1D6C",
"V&	c #61236D",
"W&	c #372851",
"X&	c #0A313F",
"Y&	c #36304E",
"Z&	c #762673",
"`&	c #EF1192",
" *	c #D4088A",
".*	c #B90081",
"+*	c #A4077D",
"@*	c #A41C82",
"#*	c #D72AA3",
"$*	c #F037D1",
"%*	c #CC34C0",
"&*	c #770E79",
"**	c #560061",
"=*	c #49005A",
"-*	c #410058",
";*	c #48005C",
">*	c #4C0064",
",*	c #55076D",
"'*	c #580971",
")*	c #701A7D",
"!*	c #7D2287",
"~*	c #841F89",
"{*	c #921F8C",
"]*	c #971C8C",
"^*	c #A01C89",
"/*	c #A71789",
"(*	c #B40D85",
"_*	c #6D2D6F",
":*	c #642F6D",
"<*	c #403658",
"[*	c #173443",
"}*	c #0B2843",
"|*	c #192B46",
"1*	c #422959",
"2*	c #732570",
"3*	c #D1148C",
"4*	c #BC0285",
"5*	c #B01F8C",
"6*	c #CD269F",
"7*	c #F02BB2",
"8*	c #FF34E0",
"9*	c #E331CB",
"0*	c #822187",
"a*	c #5D0068",
"b*	c #450055",
"c*	c #4B005B",
"d*	c #520065",
"e*	c #530069",
"f*	c #4D0069",
"g*	c #650974",
"h*	c #751B7E",
"i*	c #7C1A80",
"j*	c #810F7D",
"k*	c #86027A",
"l*	c #97007B",
"m*	c #A5037F",
"n*	c #6A286D",
"o*	c #63216D",
"p*	c #422C5B",
"q*	c #192E4A",
"r*	c #0A263F",
"s*	c #122D46",
"t*	c #1C2845",
"u*	c #4D265F",
"v*	c #682E6D",
"w*	c #BD1787",
"x*	c #CD2295",
"y*	c #EB26AB",
"z*	c #FF2BC4",
"A*	c #FF2ECE",
"B*	c #FF30D8",
"C*	c #E62DCD",
"D*	c #992298",
"E*	c #6A006E",
"F*	c #520059",
"G*	c #54005E",
"H*	c #5B0066",
"I*	c #61056E",
"J*	c #61046E",
"K*	c #62056D",
"L*	c #6F147A",
"M*	c #73177E",
"N*	c #720B79",
"O*	c #740073",
"P*	c #850074",
"Q*	c #9B0078",
"R*	c #B6037D",
"S*	c #68206C",
"T*	c #1B2442",
"U*	c #0F2940",
"V*	c #0B2740",
"W*	c #09193D",
"X*	c #0A1A41",
"Y*	c #0B1B40",
"Z*	c #36234B",
"`*	c #61246D",
" =	c #6A236F",
".=	c #EE22A2",
"+=	c #FA22B6",
"@=	c #F423BF",
"#=	c #EE25C7",
"$=	c #EB25C8",
"%=	c #DE26C8",
"&=	c #B62EB0",
"*=	c #770D76",
"==	c #630061",
"-=	c #610063",
";=	c #5E0066",
">=	c #600067",
",=	c #610068",
"'=	c #66016A",
")=	c #701278",
"!=	c #74157F",
"~=	c #770A7B",
"{=	c #730071",
"]=	c #860273",
"^=	c #960374",
"/=	c #68146E",
"(=	c #612170",
"_=	c #361548",
":=	c #07163B",
"<=	c #102045",
"[=	c #06163B",
"}=	c #09183D",
"|=	c #071F34",
"1=	c #0E1E3C",
"2=	c #151A3E",
"3=	c #3F234F",
"4=	c #61226B",
"5=	c #6D2071",
"6=	c #731E73",
"7=	c #C81CB8",
"8=	c #CA1CBE",
"9=	c #D220C2",
"0=	c #D321C3",
"a=	c #CA2DC4",
"b=	c #8E1784",
"c=	c #6A0060",
"d=	c #5B005A",
"e=	c #5C005C",
"f=	c #5D005D",
"g=	c #600062",
"h=	c #660069",
"i=	c #6E0473",
"j=	c #740A77",
"k=	c #7F0479",
"l=	c #820474",
"m=	c #64196E",
"n=	c #66196F",
"o=	c #61176B",
"p=	c #3F1951",
"q=	c #15193A",
"r=	c #051432",
"s=	c #0A1A38",
"t=	c #041432",
"u=	c #051533",
"v=	c #171C3D",
"w=	c #371B4D",
"x=	c #64166D",
"y=	c #6C1576",
"z=	c #970FAA",
"A=	c #A113A9",
"B=	c #BA16B6",
"C=	c #C126BE",
"D=	c #8F1582",
"E=	c #610058",
"F=	c #4F004F",
"G=	c #540054",
"H=	c #62005E",
"I=	c #6B0064",
"J=	c #7C0173",
"K=	c #82097B",
"L=	c #85057B",
"M=	c #980C7E",
"N=	c #68176E",
"O=	c #64186C",
"P=	c #4C1559",
"Q=	c #37194C",
"R=	c #141638",
"S=	c #071635",
"T=	c #071735",
"U=	c #041533",
"V=	c #081936",
"W=	c #1A183E",
"X=	c #411851",
"Y=	c #631573",
"Z=	c #63166F",
"`=	c #6C1772",
" -	c #871086",
".-	c #7B1071",
"+-	c #60025A",
"@-	c #5A0258",
"#-	c #5A025A",
"$-	c #770467",
"%-	c #8D0277",
"&-	c #9C1181",
"*-	c #661769",
"=-	c #65166A",
"--	c #60156B",
";-	c #41164E",
">-	c #1A193C",
",-	c #361849",
"'-	c #521A63",
")-	c #5F166B",
"!-	c #5F236B",
"~-	c #5F216B",
"{-	c #632B6C",
"]-	c #651E6B",
"^-	c #68146A",
"/-	c #51155B",
"(-	c #431855",
"_-	c #361646",
":-	c #121536",
"<-	c #051633",
"[-	c #061734",
"  . + @ + + # $ % & * = - ; > , ' ) ! ~ { ] ^ / ( _ : + < [ } [ ",
"| 1 @ . 2 $ 3 4 5 6 7 8 9 0 a b c d e f g h i j k l m n o p q r ",
"s s t t u v w x y z A B C D E F G H I J K L M N O P Q R S o p T ",
"U V W X Y Z `  ...+.@.#.$.%.&.*.=.-.;.>.,.'.).!.~.{.].^./.W t (.",
"_.:.<.[.}.|.1.2.3.4.@.5.6.7.8.9.0.a.b.c.d.e.f.g.h.i.h }.j.k.l.m.",
"n.o.p.].q.r.s.t.u.v.w.5.x.y.z.A.B.C.D.E.F.G.H.I.J.K.L.M.j N.O.P.",
"Q.R.S.T.U.V.W.X.Y.Z.`. +.+++@+#+$+%+&+*+=+-+;+>+,+'+)+!+T.~+{+]+",
"^+/+(+_+:+<+[+}+|+1+2+3+4+5+6+7+8+9+0+a+b+c+d+e+f+g+h+i+j+k+l+m+",
"n+o+p+q+r+s+t+u+v+w+x+y+z+A+B+C+D+E+F+G+H+I+J+K+L+M+N+O+P+Q+R+S+",
"^ ; T+U+V+W+X+Y+Z+`+ @.@+@@@#@$@%@&@*@=@-@;@>@,@'@)@!@~@{@]@^@/@",
"(@_@:@<@[@}@Y+|@1@2@3@4@5@6@7@8@9@0@a@b@c@d@e@f@g@h@i@j@k@l@m@n@",
"o@p+p@q@r@s@t@u@v@w@x@y@z@A@B@C@D@E@F@G@H@I@J@K@L@M@N@O@P@Q@R@S@",
"T@U@V@W@X@Y@Z@`@ #.#+#@###$#%#&#*#=#-#;#>#,#'#)#!#~#{#]#^#/#(#_#",
":#<#[#X@}#|#1#2#3#4#5#6#7#8#9#0#a#b#c#d#e#f#g#h#i#j#k#l#m#n#o#p#",
"q#r#s#t#u#v#w#x#y#z#A#B#C#D#E#F#G#H#I#J#K#L#M#N#O#P#Q#R#S#T#U#V#",
"W#X#Y#Z#`# $.$+$@$#$$$%$&$*$=$-$-$;$>$,$'$)$!$~${$]$^$/$($_$:$<$",
"[$}$|$1$2$3$4$5$6$7$8$9$0$a$b$-$-$-$c$d$e$f$g$h$b@i$j$k$l$m$n$o$",
"p$q$r$s$t$u$v$w$x$y$z$A$B$C$D$E$F$G$H$I$J$K$L$M$N$O$P$Q$R$S$T$U$",
"V$W$X$#.5.Y$Z$`$ %.%+%@%#%$%%%&%*%=%-%;%>%,%'%)%!%~%{%]%^%/%(%_%",
":%<%[%}%|%1%2%3%4%5%6%7%8%9%0%a%b%c%d%e%f%g%h%i%j%k%l%m%n%o%p%q%",
"r%o$s%t%u%v%w%x%y%z%A%B%C%D%E%F%G%H%I%J%K%L%M%N%O%P%Q%R%S%T%U%V%",
"W%X%A Y%Z%`% &.&+&@&#&$&%&&&*&=&-&;&>&,&'&)&!&~&{&]&^&/&(&_&:&<&",
"^ [&}&|&1&2&3&4&5&6&7&8&9&0&a&b&c&d&e&f&g&h&i&j&k&l&m&n&o&p&q&r&",
"s&o@t&u&v&w&x&y&z&A&B&C&D&E&F&G&H&I&J&K&L&M&N&O&P&Q&R&S&T&U&V&W&",
"X&Y&O Z&`& *.*+*@*#*$*%*&***=*-*;*>*,*'*)*!*~*{*]*^*/*(*_*:*<*[*",
"}*|*1*:*2*3*4*5*6*7*8*9*0*a*=*b*c*d*e*f*g*h*i*j*k*l*m*n*o*p*q*}*",
"r*s*t*u*v*w*x*y*z*A*B*C*D*E*F*G*H*I*J*K*L*M*N*O*P*Q*R*S*R+T*U*V*",
"W*X*Y*Z*`* =.=+=@=#=$=%=&=*===-=;=>=,='=)=!=~={=]=^=/=(=_=:=<=[=",
"}=|=1=2=3=4=5=6=7=8=9=0=a=b=c=d=e=f=g=h=i=j=k=l=m=n=o=p=q=r=s=t=",
"s u=< t v=w=5 x=y=z=A=B=C=D=E=F=G=H=I=J=K=L=M=N=O=P=Q=R=S=T=U=U=",
"V=T=u=T=$ V=W=X=V&Y=Z=`= -.-+-@-#-$-%-&-*-^@=---;->-V=T=T=u=u=U=",
"+ V=V=$ s=V=T=q=,-n@'-:#)-)-)-!-~-{-]-^-^@/-(-_-:-T=+ V=<-[-T=<-"};
