/* XPM */
static char * player_right_xpm[] = {
"32 32 191 2",
"  	c #041634",
". 	c #051634",
"+ 	c #061937",
"@ 	c #051C3B",
"# 	c #061637",
"$ 	c #072038",
"% 	c #07253F",
"& 	c #082F3C",
"* 	c #0B2740",
"= 	c #092237",
"- 	c #0A1A3B",
"; 	c #0A243B",
"> 	c #0B2943",
", 	c #072E3B",
"' 	c #092641",
") 	c #09233A",
"! 	c #09193A",
"~ 	c #071634",
"{ 	c #081736",
"] 	c #071735",
"^ 	c #071638",
"/ 	c #07173B",
"( 	c #0D2841",
"_ 	c #0D3441",
": 	c #0B2843",
"< 	c #06163B",
"[ 	c #041432",
"} 	c #041533",
"| 	c #051633",
"1 	c #051635",
"2 	c #0A1C3B",
"3 	c #0B1C3A",
"4 	c #0C1C3A",
"5 	c #051E33",
"6 	c #07233C",
"7 	c #09233C",
"8 	c #0C3341",
"9 	c #0B243C",
"0 	c #081936",
"a 	c #091B39",
"b 	c #082139",
"c 	c #09243D",
"d 	c #0A1941",
"e 	c #D0D0D0",
"f 	c #FFFFFF",
"g 	c #081839",
"h 	c #07223B",
"i 	c #113846",
"j 	c #102E48",
"k 	c #0F2940",
"l 	c #E0E0E0",
"m 	c #000000",
"n 	c #0C1D3B",
"o 	c #0E1E3F",
"p 	c #0F1E43",
"q 	c #08243D",
"r 	c #0C2B48",
"s 	c #B0B0B0",
"t 	c #091937",
"u 	c #0B1A3C",
"v 	c #0C1C41",
"w 	c #051533",
"x 	c #061734",
"y 	c #061634",
"z 	c #0F1F41",
"A 	c #0E1F43",
"B 	c #091C3B",
"C 	c #102341",
"D 	c #0B1B39",
"E 	c #0D1D41",
"F 	c #0F2047",
"G 	c #071635",
"H 	c #0F1E41",
"I 	c #102048",
"J 	c #0A263F",
"K 	c #0B1B40",
"L 	c #0D2043",
"M 	c #0C1E3F",
"N 	c #0F2547",
"O 	c #081E3E",
"P 	c #C0A040",
"Q 	c #0B2A45",
"R 	c #F2C44D",
"S 	c #0C2B46",
"T 	c #0B1B43",
"U 	c #0B243D",
"V 	c #081840",
"W 	c #0B1A3D",
"X 	c #0A1B3E",
"Y 	c #AA8834",
"Z 	c #082641",
"` 	c #0C1D46",
" .	c #071739",
"..	c #0C1E46",
"+.	c #0B1B3E",
"@.	c #0C2944",
"#.	c #0C2841",
"$.	c #0D1C45",
"%.	c #08183D",
"&.	c #0E2148",
"*.	c #0E2A43",
"=.	c #0D2A44",
"-.	c #081939",
";.	c #0A2742",
">.	c #092741",
",.	c #0F1F40",
"'.	c #0B3240",
").	c #0B253E",
"!.	c #071937",
"~.	c #0F2B47",
"{.	c #0F3544",
"].	c #807020",
"^.	c #112649",
"/.	c #082040",
"(.	c #0A1A38",
"_.	c #0A1B38",
":.	c #0A253E",
"<.	c #68541F",
"[.	c #0D2942",
"}.	c #0A2338",
"|.	c #09303E",
"1.	c #0F3543",
"2.	c #909090",
"3.	c #808080",
"4.	c #0D2A45",
"5.	c #0E2942",
"6.	c #082239",
"7.	c #A0A0A0",
"8.	c #7F5A48",
"9.	c #E5A282",
"0.	c #A5765E",
"a.	c #0A313F",
"b.	c #CA8F72",
"c.	c #0A2842",
"d.	c #091A41",
"e.	c #0E2841",
"f.	c #000060",
"g.	c #102D47",
"h.	c #102B44",
"i.	c #0000A0",
"j.	c #112D46",
"k.	c #0D2E49",
"l.	c #102F4A",
"m.	c #0A2641",
"n.	c #0B2945",
"o.	c #091A3B",
"p.	c #0000C0",
"q.	c #082F3E",
"r.	c #123451",
"s.	c #0E2D47",
"t.	c #0D3745",
"u.	c #0D2B45",
"v.	c #0000E0",
"w.	c #072C4A",
"x.	c #0F2C47",
"y.	c #08233C",
"z.	c #091941",
"A.	c #0F1E3C",
"B.	c #0000FF",
"C.	c #0A2743",
"D.	c #0A313E",
"E.	c #0C1B3D",
"F.	c #0E1E46",
"G.	c #0E3542",
"H.	c #0C263D",
"I.	c #0D1C3E",
"J.	c #0C1B39",
"K.	c #0C1E3C",
"L.	c #0B2439",
"M.	c #0B1C39",
"N.	c #0D1E3B",
"O.	c #0E1E43",
"P.	c #0B2C43",
"Q.	c #0E2B46",
"R.	c #0E1E3C",
"S.	c #071836",
"T.	c #081836",
"U.	c #0A1B42",
"V.	c #14344E",
"W.	c #122D46",
"X.	c #0A1A41",
"Y.	c #071F34",
"Z.	c #091A38",
"`.	c #081837",
" +	c #09193B",
".+	c #0B2346",
"++	c #0A2C45",
"@+	c #0E3543",
"#+	c #0C314B",
"$+	c #09193D",
"%+	c #09183D",
"  . + @ # $ % & * = - ; > , ' ) ! ~ { ] ^ / ( > _ : * < [ } } | ",
"1 2 3 4 5 6 7 8 9 0 a b 7 ' c d e f e e g / h * i j k l l l m ] ",
"  3 n o p q r _ e f f e e f s s f s s t u v 7 h l l l l s m w x ",
"y n z A q e f s e e s s f f e e e B C D E F l l s s s m m G ] | ",
"t H I s e f e f f f e e s s f J K L M E l l s s s m m N u G ] 0 ",
"O f f e f P e e s s f f f Q R S T U l l s s s m m m % V - W 0 t ",
"X e s s e P Y f e e s f Y Y R R l l s s s m m m m ' Z c `  .0 ] ",
"f e e f f R Y s s P Y P R P Y R R s s m m m m m m m m m ..+.] w ",
"f f e e e R P e P R P Y P Y Y @.R m P P m m m m m m P m #.$.%.] ",
"J e s s f R P Y R P P Y Y Y &.*.P P R Y m m m m m R P m =.#.-.-.",
";.>.f f e P R P Y P Y Y ,.m m m P R Y Y m P R R P R Y m '.).!.] ",
">.~.{.~.f P R P Y ].Y ^./.(.m P R P Y ].P P ].P P P ].m '.U _.0 ",
"' > _ c :.f P R P Y R P P P ].P P Y Y <.P Y P Y Y ].m m 8 [.}.] ",
"|.1.2.3.3.3.P R P P ].R R R P ].P Y <.Y Y ].].].].].m #.@.4.5.6.",
">.7.7.8.9.0.].P P P Y P P P P P ].Y <.].].Y m m m m m ` =.@.i a.",
"7.2.9.9.9.9.].].].].Y P P Y Y Y Y m m m m m m m m m m m m '.' ' ",
"2.2.b.8.9.b.].P P P Y Y Y P P P ].P <.].].].m m m m m m m m >.c.",
"3.7.2.b.b.0.P R P Y ].Y Y Y Y Y ].P P <.Y ].].].].m m m m m m d.",
"( 7.3.7.3.3.P P P Y P Y Y Y ].].P R P <.P Y Y Y Y ].].].Y ].m m ",
"e.2.7.3.7.P R P Y P P f.f.f.f.f.f.Y P P <.P P P P Y Y Y Y Y ].m ",
"5.g.2.> f P R P Y P f.f.f.f.f.f.f.f.f.f.P <.P R P Y Y R Y P Y m ",
"h.h.4.f f P R P Y f.f.i.i.Y i.i.i.i.f.f.f.P R P Y P P Y R P Y m ",
",.j.e f e R P Y P i.i.i.i.P i.i.i.i.i.i.i.f.k.l.m.n.m m P R P m ",
"o.e s s e R P e p.p.p.p.p.R p.p.p.P P Y i.i.i.q.r.s.t.u.m m m -.",
"_.f f e f R P e p.p.P R R R R R P v.v.v.v.v.u.w.' '.u.x.y.z.! t ",
"A.e e s s P f f e B.B.B.B.R B.B.B.B.B.p.p.d z.C.J ' D.c.c E.g ] ",
"t _.f f e e s s f f p.B.B.P B.B.B.p.p.e e F.* >.c.m.G.( H.I.0 0 ",
"t J.K.e s f f e e e f f p.p.p.p.p.f f f f f e e e e e ( L.4 _.(.",
"M.N.4 O.e s s s f s s e e f e e e f e e s s f f f e e ; - 4 ] _.",
"t M.4 o P.:.f f e e f f s s s f f e e f f e e e e Q.#.K R.y w 0 ",
"N.S.T.-.) U.>.V.e e e e f f f e e f s f f f e m.a.h.W.X.Y.w ] 0 ",
"Z.`.T. +.+c.++@+#+J e e e e e f f f f e s F J : a.: J $+%+T.0 t "};
