/* XPM */
static char * player_left_xpm[] = {
"32 32 191 2",
"  	c #091937",
". 	c #081936",
"+ 	c #081836",
"@ 	c #09183D",
"# 	c #09193D",
"$ 	c #0A263F",
"% 	c #0B2843",
"& 	c #0A313F",
"* 	c #0F2047",
"= 	c #B0B0B0",
"- 	c #D0D0D0",
"; 	c #FFFFFF",
"> 	c #0C314B",
", 	c #0E3543",
"' 	c #0A2C45",
") 	c #0A2842",
"! 	c #0B2346",
"~ 	c #09193B",
"{ 	c #081837",
"] 	c #091A38",
"^ 	c #071735",
"/ 	c #051533",
"( 	c #071F34",
"_ 	c #0A1A41",
": 	c #122D46",
"< 	c #102B44",
"[ 	c #0A2641",
"} 	c #14344E",
"| 	c #092741",
"1 	c #0A1B42",
"2 	c #09233A",
"3 	c #081939",
"4 	c #071836",
"5 	c #0D1E3B",
"6 	c #061634",
"7 	c #0E1E3C",
"8 	c #0B1B40",
"9 	c #0C2841",
"0 	c #0E2B46",
"a 	c #0A253E",
"b 	c #0B2C43",
"c 	c #0E1E3F",
"d 	c #0C1C3A",
"e 	c #0B1C39",
"f 	c #0A1B38",
"g 	c #0A1A3B",
"h 	c #0A243B",
"i 	c #0E1E43",
"j 	c #0A1A38",
"k 	c #0B2439",
"l 	c #0D2841",
"m 	c #0000C0",
"n 	c #0C1E3C",
"o 	c #0C1B39",
"p 	c #0D1C3E",
"q 	c #0C263D",
"r 	c #0E3542",
"s 	c #0B2740",
"t 	c #0E1E46",
"u 	c #0000FF",
"v 	c #C0A040",
"w 	c #081839",
"x 	c #0C1B3D",
"y 	c #09243D",
"z 	c #0A313E",
"A 	c #092641",
"B 	c #0A2743",
"C 	c #091941",
"D 	c #0A1941",
"E 	c #F2C44D",
"F 	c #0F1E3C",
"G 	c #09193A",
"H 	c #08233C",
"I 	c #0F2C47",
"J 	c #0D2B45",
"K 	c #0B3240",
"L 	c #072C4A",
"M 	c #0000E0",
"N 	c #000000",
"O 	c #0D3745",
"P 	c #0E2D47",
"Q 	c #123451",
"R 	c #082F3E",
"S 	c #0000A0",
"T 	c #AA8834",
"U 	c #091A3B",
"V 	c #0B2945",
"W 	c #102F4A",
"X 	c #0D2E49",
"Y 	c #000060",
"Z 	c #112D46",
"` 	c #0F1F40",
" .	c #0D2A45",
"..	c #68541F",
"+.	c #0B2943",
"@.	c #909090",
"#.	c #102D47",
"$.	c #0E2942",
"%.	c #807020",
"&.	c #A0A0A0",
"*.	c #808080",
"=.	c #0E2841",
"-.	c #091A41",
";.	c #A5765E",
">.	c #CA8F72",
",.	c #E5A282",
"'.	c #7F5A48",
").	c #113846",
"!.	c #0C2944",
"~.	c #0D2A44",
"{.	c #0C1D46",
"].	c #082239",
"^.	c #0F3543",
"/.	c #09303E",
"(.	c #0A2338",
"_.	c #0D2942",
":.	c #0C3341",
"<.	c #0D3441",
"[.	c #0B243D",
"}.	c #082040",
"|.	c #112649",
"1.	c #0F2B47",
"2.	c #0F3544",
"3.	c #071937",
"4.	c #0B253E",
"5.	c #0A2742",
"6.	c #0E2A43",
"7.	c #0E2148",
"8.	c #08183D",
"9.	c #0D1C45",
"0.	c #0B1B3E",
"a.	c #0C1E46",
"b.	c #071739",
"c.	c #082641",
"d.	c #E0E0E0",
"e.	c #0A1B3E",
"f.	c #0B1A3D",
"g.	c #081840",
"h.	c #07253F",
"i.	c #0B1B43",
"j.	c #0C2B46",
"k.	c #0B2A45",
"l.	c #081E3E",
"m.	c #071635",
"n.	c #0B1A3C",
"o.	c #0F2547",
"p.	c #0D1D41",
"q.	c #0C1E3F",
"r.	c #0D2043",
"s.	c #102048",
"t.	c #0F1E41",
"u.	c #051633",
"v.	c #0B1B39",
"w.	c #102341",
"x.	c #091C3B",
"y.	c #08243D",
"z.	c #0E1F43",
"A.	c #0F1F41",
"B.	c #0C1D3B",
"C.	c #061734",
"D.	c #07223B",
"E.	c #09233C",
"F.	c #0C1C41",
"G.	c #0C2B48",
"H.	c #0F1E43",
"I.	c #0B1C3A",
"J.	c #041634",
"K.	c #0F2940",
"L.	c #102E48",
"M.	c #07173B",
"N.	c #082139",
"O.	c #091B39",
"P.	c #0B243C",
"Q.	c #07233C",
"R.	c #051E33",
"S.	c #0A1C3B",
"T.	c #051635",
"U.	c #041533",
"V.	c #041432",
"W.	c #06163B",
"X.	c #071638",
"Y.	c #081736",
"Z.	c #071634",
"`.	c #072E3B",
" +	c #092237",
".+	c #082F3C",
"++	c #072038",
"@+	c #061637",
"#+	c #051C3B",
"$+	c #061937",
"%+	c #051634",
"  . + @ # $ % & % $ * = - ; ; ; ; - - - - - $ > , ' ) ! ~ + { ] ",
". ^ / ( _ : < & [ - ; ; ; = ; - - ; ; ; - - - - } | 1 2 3 + 4 5 ",
". / 6 7 8 9 0 - - - - ; ; - - ; ; = = = ; ; - - ; ; a b c d e   ",
"f ^ d g h - - ; ; ; = = - - ; - - - ; - - = = ; = = = - i d 5 e ",
"j f d k l - - - - - ; ; ; ; ; m m m m m ; ; - - - ; ; = - n o   ",
". . p q l r [ ) | s t - - m m u u u v u u m ; ; = = - - ; ; f   ",
"^ w x y ) z A $ B C D m m u u u u u E u u u u - ; ; v = = - - F ",
"  G C H I J K A L J M M M M M v E E E E E v m m - v E ; - ; ; f ",
"3 N N N J O P Q R S S S T v v m m m E m m m m m - v E - = = - U ",
"N v E v N N V [ W X Y S S S S S S S v S S S S v T v E - ; - Z ` ",
"N T v E T v v T v E v Y Y Y S S S S T S S Y Y T v E v ; ;  .< < ",
"N T v T E T T v E v ..v Y Y Y Y Y Y Y Y Y Y v T v E v ; +.@.#.$.",
"N %.T T T T T v v v v ..v v T Y Y Y Y Y Y v v T v E v &.*.&.@.=.",
"N N %.T %.%.%.T T T T v ..v E v %.%.T T T v T v v v *.*.&.*.&.l ",
"-.N N N N N N %.%.%.%.T ..v v %.T T T T T %.T v E v ;.>.>.@.&.*.",
") | N N N N N N N N %.%.%...v %.v v v T T T v v v %.>.,.'.>.@.@.",
"A A K N N N N N N N N N N N N T T T T v v T %.%.%.%.,.,.,.,.@.&.",
"& ).!.~.{.N N N N N T %.%...T %.v v v v v T v v v %.;.,.'.&.&.| ",
"].$. .!.9 N %.%.%.%.%.T T ..T v %.v E E E %.v v E v *.*.*.@.^./.",
"^ (._.:.N N %.T T v T v ..T T v v %.v v v E T v E v ; a y <.+.A ",
". f [.K N %.v v v %.v v %.T v E v N j }.|.T %.T v E v ; 1.2.1.| ",
"^ 3.4.K N T E v E E v N T T E v N N N ` T T v T v E v - ; ; | 5.",
"3 3 9 ~.N v E N N N N N T E v v 6.7.T T T v v E T v E ; = = - $ ",
"^ 8.9.9 N v N N N N N N v v N E !.T T v T v E v - v E - - - ; ; ",
"/ ^ 0.a.N N N N N N N N N = = E E T v E v T v = = T E ; ; - - ; ",
"^ . b.{.y c.A N N N N = = = d.d.E E T T ; = - - ; T v - = = - e.",
"  . f.g g.h.N N N = = = d.d.[.i.j.E k.; ; ; = = - - v ; - ; ; l.",
". ^ m.n.o.N N = = = d.d.p.q.r.8 $ ; = = - - ; ; ; - ; - = s.t.  ",
"u.^ m.N N = = = d.d.* p.v.w.x.- - - ; ; = = - - = ; - y.z.A.B.6 ",
"C./ N = d.d.d.d.D.E.F.n.  = = ; = = ; - - ; ; - <.G.y.H.c B.I.J.",
"^ N d.d.d.K.L.).s D.M.w - - ; - D y A E.N.O.. P.:.E.Q.R.d I.S.T.",
"u.U.U.V.W.s % <.+.l M.X.^ Y.Z.G 2 A `.+.h g  +s .+h.++@+#+$+%+J."};
