/* XPM */
static char * wall_xpm[] = {
"32 32 6 1",
" 	c #101010",
".	c #606060",
"+	c #505050",
"@	c #303030",
"#	c #404040",
"$	c #202020",
"                                ",
".+.+.++.++.+..@ @.+.+.#@.++..+$ ",
"+@@@#@#@@#@#@@$ #@@@#@##@@#@#@@ ",
".@##@$@##$@$$$$ +@##@@$@@@$@$@$ ",
"$                               ",
"+@###@@ @##@+@#@#+#@@@$ @+##@+#@",
".@@@@@$ #@@@#@@#@@+#@@$ +#@@+#@$",
"@$$$@$$ +@##+#@$@$@@$$$ #@$##$$@",
"$                               ",
"+#+@@#+#@#@@@## ###@@#@#@@#@@@$ ",
".@##+@@@@@@@##@ @@###@@@@#@@@@@ ",
"#@$@$$$@@$@#@@$ #@$@$@@##$@@$@$ ",
"$                               ",
"##@##@$ @#+#@+#@#@@+#@@ #+#+@##@",
".@@@@@@ #@@##@@##@##@@$ #@@##@@@",
"+$$@$@$ #@#@#$$@$@@$@$$ @#@#@$$@",
"$                               ",
"+#+@@@##++@+@@$ #+@##@@+#@@@#@$ ",
"+@#####@@##@@@$ +#@@@@@####@@@$ ",
".$$@$@@$@@$@$$@ #@####@@$$@$$$@ ",
"$                               ",
".#+##@$ +#@+##+@+#@+@@@ #+#+@#+@",
"+@@@@@$ #@@@###@@@@@#@$ +@@##@@@",
".$$@$@$ #@#$$$@$$@##@$$ ##$$@$$$",
"$                               ",
"+#+#@#+#@@#+#@$ #@#+@@####@+##@ ",
".#@@@@@@@@@@@$$ +@+##@##@@@@@@$ ",
"+@###@##@$$$$@$ ###@@$$@@$$$$$$ ",
"$                               ",
"++#@@@$ @###+@+#@+@@@@$ +@@+#+#@",
".###@@@ #+@@##@#@@@@@@$ ##@@@@@@",
".#@@$$$ @+@@#@@@@##@$@$ #@#$$$@$"};
